<svg viewBox="0 0 372 240" version="1.1" xmlns="http://www.w3.org/2000/svg" xmlns:xlink="http://www.w3.org/1999/xlink">
    <defs>
        <path d="M108.872756,124.39244 C108.942824,124.472217 109.015126,124.550739 109.089664,124.627926 C111.646207,127.275302 115.864816,127.348938 118.512193,124.792397 L138.368127,105.617744 C141.015504,103.061202 141.08914,98.842592 138.532598,96.1952153 C135.976056,93.5478386 131.757446,93.4742025 129.110069,96.0307447 L113.974876,110.646631 L86.8687756,83.5405315 C84.2664199,80.9381757 80.0471675,80.9381757 77.4448121,83.5405315 C74.8424563,86.1428872 74.8424563,90.3621393 77.4448121,92.9644951 L108.872756,124.39244 Z M113.919744,186.55723 C77.116877,186.55723 47.2822583,156.722612 47.2822583,119.919744 C47.2822583,83.116877 77.116877,53.2822583 113.919744,53.2822583 C150.722612,53.2822583 180.55723,83.116877 180.55723,119.919744 C180.55723,156.722612 150.722612,186.55723 113.919744,186.55723 Z" id="path-3"></path>
    </defs>
    <g fill-rule="evenodd">
        <g>
            <g fill-rule="nonzero" transform="translate(113.919744, 119.919744) rotate(-13.000000) translate(-113.919744, -119.919744) ">
                <use fill="#EE194F" fill-rule="evenodd" xlink:href="#path-3"></use>
            </g>
        </g>
    </g>
</svg>