<svg viewBox="0 0 320 152" version="1.1" xmlns="http://www.w3.org/2000/svg" xmlns:xlink="http://www.w3.org/1999/xlink">
    <title>Clock</title>
    <defs>
        <rect id="path-1" x="0" y="0" width="320" height="152"></rect>
    </defs>
    <g fill-rule="evenodd">
        <g>
            <mask id="mask-2" fill="white">
              <use xlink:href="#path-1"></use>
            </mask>
            <g mask="url(#mask-2)">
              <path d="M79.4126695,123.132735 C79.5394388,123.277071 79.6702499,123.419136 79.8051066,123.558784 C84.4304868,128.348505 92.0629342,128.48173 96.8526553,123.85635 L132.776665,89.1649375 C137.566386,84.5395573 137.69961,76.9071099 133.07423,72.1173888 C128.448851,67.3276678 120.816403,67.1944429 116.026682,71.8198231 L88.6435913,98.2633663 L39.6023434,49.2221184 C34.8940758,44.5138508 27.2604655,44.5138508 22.5521984,49.2221184 C17.8439308,53.9303861 17.8439308,61.5639957 22.5521984,66.2722634 L79.4126695,123.132735 Z M88.5438461,235.60332 C21.9588875,235.60332 -32.0188864,181.625546 -32.0188864,115.040587 C-32.0188864,48.4556288 21.9588875,-5.52214512 88.5438461,-5.52214512 C155.128805,-5.52214512 209.106579,48.4556288 209.106579,115.040587 C209.106579,181.625546 155.128805,235.60332 88.5438461,235.60332 Z" fill="#EF1C50" fill-rule="nonzero" transform="translate(88.543846, 115.040587) rotate(17.000000) translate(-88.543846, -115.040587) "></path>
            </g>
        </g>
    </g>
</svg>