<svg xmlns="http://www.w3.org/2000/svg" viewBox="0 0 197.38 158.77"><title>FocusBlock Logo</title><g><g><path fill="#AD1548" d="M193.46 30.2a10.88 10.88 0 0 0-1.76-6.44 11.42 11.42 0 0 0-4.24-3.69A44.68 44.68 0 0 0 181 17.63 45.72 45.72 0 0 1 176.51 16a8.27 8.27 0 0 1-2.75-1.92 4.28 4.28 0 0 1-1.1-3 4.3 4.3 0 0 1 1.77-3.6 7.73 7.73 0 0 1 4.76-1.34 6.32 6.32 0 0 1 4.58 1.65 5.92 5.92 0 0 1 1.7 4.45v0.67h7.14v-0.73q0-6.1-3.75-9.12a15 15 0 0 0-9.67-3 15.7 15.7 0 0 0-9.82 3 10.12 10.12 0 0 0-3.9 8.54 11.16 11.16 0 0 0 1.7 6.47 11.56 11.56 0 0 0 4.12 3.69 41.66 41.66 0 0 0 6.25 2.47c2 0.69 3.61 1.29 4.73 1.8a8 8 0 0 1 2.84 2.13 5.29 5.29 0 0 1 1.16 3.51 5.08 5.08 0 0 1-1.8 4 8.06 8.06 0 0 1-5.4 1.56 7.4 7.4 0 0 1-5.28-1.86 6.65 6.65 0 0 1-2-5.09l0.06-1.1h-7.2l-0.06 1.28a12.71 12.71 0 0 0 1.91 7.14H150.28a15.56 15.56 0 0 0 2-8.3V0.73h-7V29.22a8.5 8.5 0 0 1-1.89 5.92 7.83 7.83 0 0 1-10.61 0 8.5 8.5 0 0 1-1.89-5.92V0.73h-7V29.28a15.65 15.65 0 0 0 2 8.3H109c1.81-2.59 2.73-6 2.73-10.31h-6.83q0 4.93-2.17 7.44a7.43 7.43 0 0 1-5.94 2.5 8 8 0 0 1-7.14-3.6Q87.29 30 87.29 23.18V20.13q0-6.82 2.35-10.43a7.84 7.84 0 0 1 7-3.6 7.16 7.16 0 0 1 5.8 2.56q2.13 2.56 2.13 7.51h7.14q0-8.06-4.12-12.11T96.68 0q-8.1 0-12.35 5.4T80.09 21.66c0 7 1.35 12.32 4 15.92h-19q4.23-5.43 4.24-15.92 0-10.8-4.46-16.23T52.28 0Q44.11 0 39.65 5.43T35.2 21.66q0 10.5 4.23 15.92H7V24.77H22.08V18.54H7V7H24.46V0.73H0V158H17.26a13.62 13.62 0 0 0 6.1-1.34 10.55 10.55 0 0 0 6-9.82 11.13 11.13 0 0 0-2.07-6.74A10 10 0 0 0 22 136.33v-0.25a9.25 9.25 0 0 0 4.61-3.54 10.21 10.21 0 0 0 1.8-6 10.09 10.09 0 0 0-1.44-5.4s0 0 0-0.07H41.36v37H65.82v-6.46H48.37V121H80q-4.33 5.43-4.34 16.08t4.45 16.23q4.45 5.43 12.63 5.42t12.63-5.42q4.44-5.43 4.45-16.23T105.45 121h19.2q-4.11 5.4-4.12 16.08 0 10.86 4.24 16.26t12.36 5.39q6.83 0 11-4.05t4.11-12h-6.83q0 5-2.16 7.44a7.46 7.46 0 0 1-5.95 2.5 8 8 0 0 1-7.14-3.59q-2.37-3.6-2.38-10.44v-3q0-6.83 2.35-10.43a7.88 7.88 0 0 1 7-3.6 7.13 7.13 0 0 1 5.79 2.57c1.42 1.7 2.14 4.21 2.14 7.5h7.13c0-4.45-0.95-8-2.84-10.59h17v37h7V146.58l6.59-7.81L189.51 158h7.87l-12.87-24.89L193.4 121l0.06-0.09h0V116.2h0V37.58M42.39 20.13q0-6.76 2.57-10.4A8.4 8.4 0 0 1 52.28 6.1 8.43 8.43 0 0 1 59.6 9.73q2.55 3.63 2.56 10.4v3.05q0 6.77-2.56 10.4a8.43 8.43 0 0 1-7.32 3.63A8.4 8.4 0 0 1 45 33.58Q42.4 30 42.39 23.18ZM21.29 127.85a5.51 5.51 0 0 1-1.62 4 5.83 5.83 0 0 1-4.36 1.65H7v-11.1h8.73a5.81 5.81 0 0 1 4.08 1.4A5.2 5.2 0 0 1 21.29 127.85Zm1 18.11a5.57 5.57 0 0 1-1.7 4.31 6.31 6.31 0 0 1-4.39 1.55H7V139.74H15.8a6.31 6.31 0 0 1 4.76 1.77A6.19 6.19 0 0 1 22.26 146Zm80.34-7.32q0 6.78-2.56 10.41a9.21 9.21 0 0 1-14.64 0q-2.57-3.63-2.56-10.41v-3q0-6.76 2.56-10.4a9.2 9.2 0 0 1 14.64 0q2.56 3.63 2.56 10.4Zm70.81-0.79V121h12.26Z"/></g></g></svg>
