<?xml version="1.0" encoding="UTF-8"?>
<svg viewBox="0 0 33 32" version="1.1" xmlns="http://www.w3.org/2000/svg" xmlns:xlink="http://www.w3.org/1999/xlink">
    <title>Github Icon</title>
    <g fill-rule="evenodd">
        <path d="M16.4694545,0 C7.37481818,0 0,7.33152542 0,16.3764068 C0,23.611661 4.719,29.7502373 11.2628182,31.915661 C12.0859091,32.0672542 12.3880909,31.5604068 12.3880909,31.1278644 C12.3880909,30.7376271 12.3728182,29.447322 12.3657273,28.0789153 C7.78390909,29.0695593 6.81709091,26.1467119 6.81709091,26.1467119 C6.06790909,24.2541017 4.98845455,23.7505085 4.98845455,23.7505085 C3.49418182,22.7341017 5.10109091,22.7549831 5.10109091,22.7549831 C6.75490909,22.8705085 7.62572727,24.4428475 7.62572727,24.4428475 C9.09463636,26.9461695 11.4785455,26.2223729 12.4183636,25.8039322 C12.5661818,24.7457627 12.993,24.0230508 13.464,23.6141017 C9.80590909,23.2002712 5.96045455,21.7957966 5.96045455,15.5208136 C5.96045455,13.7331525 6.60381818,12.2722712 7.65736364,11.1251525 C7.48636364,10.712678 6.92263636,9.04705085 7.81690909,6.79132203 C7.81690909,6.79132203 9.20018182,6.35145763 12.3471818,8.4699661 C13.6609091,8.10738983 15.0698182,7.92542373 16.4694545,7.91891525 C17.8690909,7.92542373 19.2790909,8.10738983 20.5952727,8.4699661 C23.7387273,6.35145763 25.1198182,6.79132203 25.1198182,6.79132203 C26.0162727,9.04705085 25.4525455,10.712678 25.2815455,11.1251525 C26.3375455,12.2722712 26.9762727,13.7331525 26.9762727,15.5208136 C26.9762727,21.8109831 23.1234545,23.195661 19.4560909,23.6010847 C20.0468182,24.1092881 20.5731818,25.1058983 20.5731818,26.6337627 C20.5731818,28.8249492 20.5543636,30.5884746 20.5543636,31.1278644 C20.5543636,31.5639322 20.8505455,32.0743051 21.6853636,31.9137627 C28.2256364,29.7458983 32.9389091,23.6094915 32.9389091,16.3764068 C32.9389091,7.33152542 25.5651818,0 16.4694545,0" fill="white"></path>
    </g>
</svg>