<svg viewBox="0 0 372 240" version="1.1" xmlns="http://www.w3.org/2000/svg" xmlns:xlink="http://www.w3.org/1999/xlink">
    <title>Keyboard</title>
    <defs>
        <rect id="path-1" x="0" y="0" width="372" height="240"></rect>
        <path d="M155.669099,33.8759449 C154.685028,33.8759449 153.88728,34.6732942 153.88728,35.6568741 L153.88728,42.7805907 C153.88728,43.7641707 154.685028,44.5615199 155.669099,44.5615199 L162.796372,44.5615199 C163.780443,44.5615199 164.57819,43.7641707 164.57819,42.7805907 L164.57819,35.6568741 C164.57819,34.6732942 163.780443,33.8759449 162.796372,33.8759449 L155.669099,33.8759449 Z M-2.19999955,33.8759449 C-3.1840706,33.8759449 -3.98181781,34.6732942 -3.98181781,35.6568741 L-3.98181781,42.7805907 C-3.98181781,43.7641707 -3.1840706,44.5615199 -2.19999955,44.5615199 L4.9272735,44.5615199 C5.91134447,44.5615199 6.70909177,43.7641707 6.70909177,42.7805907 L6.70909177,35.6568741 C6.70909177,34.6732942 5.91134447,33.8759449 4.9272735,33.8759449 L-2.19999955,33.8759449 Z M-6.65454521,16.0666533 L194.156373,16.0666533 C197.108586,16.0666533 199.501828,18.4587008 199.501828,21.4094408 L199.501828,105.113111 C199.501828,108.063851 197.108586,110.455899 194.156373,110.455899 L-6.65454521,110.455899 C-9.60675837,110.455899 -12,108.063851 -12,105.113111 L-12,21.4094408 C-12,18.4587008 -9.60675837,16.0666533 -6.65454521,16.0666533 Z M-2.19999955,23.19037 C-3.1840706,23.19037 -3.98181781,23.9877191 -3.98181781,24.9712991 L-3.98181781,26.7522283 C-3.98181781,27.7358083 -3.1840706,28.5331575 -2.19999955,28.5331575 L4.9272735,28.5331575 C5.91134447,28.5331575 6.70909177,27.7358083 6.70909177,26.7522283 L6.70909177,24.9712991 C6.70909177,23.9877191 5.91134447,23.19037 4.9272735,23.19037 L-2.19999955,23.19037 Z M12.0545466,23.19037 C11.0704756,23.19037 10.2727283,23.9877191 10.2727283,24.9712991 L10.2727283,26.7522283 C10.2727283,27.7358083 11.0704756,28.5331575 12.0545466,28.5331575 L19.1818196,28.5331575 C20.1658906,28.5331575 20.9636379,27.7358083 20.9636379,26.7522283 L20.9636379,24.9712991 C20.9636379,23.9877191 20.1658906,23.19037 19.1818196,23.19037 L12.0545466,23.19037 Z M26.3090927,23.19037 C25.3250217,23.19037 24.5272744,23.9877191 24.5272744,24.9712991 L24.5272744,26.7522283 C24.5272744,27.7358083 25.3250217,28.5331575 26.3090927,28.5331575 L33.4363657,28.5331575 C34.4204367,28.5331575 35.218184,27.7358083 35.218184,26.7522283 L35.218184,24.9712991 C35.218184,23.9877191 34.4204367,23.19037 33.4363657,23.19037 L26.3090927,23.19037 Z M40.5636388,23.19037 C39.5795678,23.19037 38.7818205,23.9877191 38.7818205,24.9712991 L38.7818205,26.7522283 C38.7818205,27.7358083 39.5795678,28.5331575 40.5636388,28.5331575 L47.6909118,28.5331575 C48.6749828,28.5331575 49.4727301,27.7358083 49.4727301,26.7522283 L49.4727301,24.9712991 C49.4727301,23.9877191 48.6749828,23.19037 47.6909118,23.19037 L40.5636388,23.19037 Z M54.8181849,23.19037 C53.8341139,23.19037 53.0363666,23.9877191 53.0363666,24.9712991 L53.0363666,26.7522283 C53.0363666,27.7358083 53.8341139,28.5331575 54.8181849,28.5331575 L61.9454579,28.5331575 C62.9295289,28.5331575 63.7272762,27.7358083 63.7272762,26.7522283 L63.7272762,24.9712991 C63.7272762,23.9877191 62.9295289,23.19037 61.9454579,23.19037 L54.8181849,23.19037 Z M69.072731,23.19037 C68.08866,23.19037 67.2909127,23.9877191 67.2909127,24.9712991 L67.2909127,26.7522283 C67.2909127,27.7358083 68.08866,28.5331575 69.072731,28.5331575 L76.200004,28.5331575 C77.184075,28.5331575 77.9818223,27.7358083 77.9818223,26.7522283 L77.9818223,24.9712991 C77.9818223,23.9877191 77.184075,23.19037 76.200004,23.19037 L69.072731,23.19037 Z M83.3272771,23.19037 C82.3432061,23.19037 81.5454588,23.9877191 81.5454588,24.9712991 L81.5454588,26.7522283 C81.5454588,27.7358083 82.3432061,28.5331575 83.3272771,28.5331575 L90.4545502,28.5331575 C91.4386211,28.5331575 92.2363684,27.7358083 92.2363684,26.7522283 L92.2363684,24.9712991 C92.2363684,23.9877191 91.4386211,23.19037 90.4545502,23.19037 L83.3272771,23.19037 Z M97.5818232,23.19037 C96.5977522,23.19037 95.8000049,23.9877191 95.8000049,24.9712991 L95.8000049,26.7522283 C95.8000049,27.7358083 96.5977522,28.5331575 97.5818232,28.5331575 L104.709096,28.5331575 C105.693167,28.5331575 106.490915,27.7358083 106.490915,26.7522283 L106.490915,24.9712991 C106.490915,23.9877191 105.693167,23.19037 104.709096,23.19037 L97.5818232,23.19037 Z M111.301824,23.19037 C110.317753,23.19037 109.520006,23.9877191 109.520006,24.9712991 L109.520006,26.7522283 C109.520006,27.7358083 110.317753,28.5331575 111.301824,28.5331575 L118.429097,28.5331575 C119.413168,28.5331575 120.210915,27.7358083 120.210915,26.7522283 L120.210915,24.9712991 C120.210915,23.9877191 119.413168,23.19037 118.429097,23.19037 L111.301824,23.19037 Z M125.55637,23.19037 C124.572299,23.19037 123.774552,23.9877191 123.774552,24.9712991 L123.774552,26.7522283 C123.774552,27.7358083 124.572299,28.5331575 125.55637,28.5331575 L132.683643,28.5331575 C133.667714,28.5331575 134.465461,27.7358083 134.465461,26.7522283 L134.465461,24.9712991 C134.465461,23.9877191 133.667714,23.19037 132.683643,23.19037 L125.55637,23.19037 Z M139.810916,23.19037 C138.826845,23.19037 138.029098,23.9877191 138.029098,24.9712991 L138.029098,26.7522283 C138.029098,27.7358083 138.826845,28.5331575 139.810916,28.5331575 L146.938189,28.5331575 C147.92226,28.5331575 148.720007,27.7358083 148.720007,26.7522283 L148.720007,24.9712991 C148.720007,23.9877191 147.92226,23.19037 146.938189,23.19037 L139.810916,23.19037 Z M154.065462,23.19037 C153.081391,23.19037 152.283644,23.9877191 152.283644,24.9712991 L152.283644,26.7522283 C152.283644,27.7358083 153.081391,28.5331575 154.065462,28.5331575 L161.192735,28.5331575 C162.176806,28.5331575 162.974553,27.7358083 162.974553,26.7522283 L162.974553,24.9712991 C162.974553,23.9877191 162.176806,23.19037 161.192735,23.19037 L154.065462,23.19037 Z M168.320008,23.19037 C167.335937,23.19037 166.53819,23.9877191 166.53819,24.9712991 L166.53819,26.7522283 C166.53819,27.7358083 167.335937,28.5331575 168.320008,28.5331575 L175.447281,28.5331575 C176.431353,28.5331575 177.2291,27.7358083 177.2291,26.7522283 L177.2291,24.9712991 C177.2291,23.9877191 176.431353,23.19037 175.447281,23.19037 L168.320008,23.19037 Z M182.574554,23.19037 C181.590483,23.19037 180.792736,23.9877191 180.792736,24.9712991 L180.792736,26.7522283 C180.792736,27.7358083 181.590483,28.5331575 182.574554,28.5331575 L189.701827,28.5331575 C190.685899,28.5331575 191.483646,27.7358083 191.483646,26.7522283 L191.483646,24.9712991 C191.483646,23.9877191 190.685899,23.19037 189.701827,23.19037 L182.574554,23.19037 Z M12.0545466,33.8759449 C11.0704756,33.8759449 10.2727283,34.6732942 10.2727283,35.6568741 L10.2727283,42.7805907 C10.2727283,43.7641707 11.0704756,44.5615199 12.0545466,44.5615199 L19.1818196,44.5615199 C20.1658906,44.5615199 20.9636379,43.7641707 20.9636379,42.7805907 L20.9636379,35.6568741 C20.9636379,34.6732942 20.1658906,33.8759449 19.1818196,33.8759449 L12.0545466,33.8759449 Z M26.4872745,33.8759449 C25.5032035,33.8759449 24.7054562,34.6732942 24.7054562,35.6568741 L24.7054562,42.7805907 C24.7054562,43.7641707 25.5032035,44.5615199 26.4872745,44.5615199 L33.6145475,44.5615199 C34.5986185,44.5615199 35.3963658,43.7641707 35.3963658,42.7805907 L35.3963658,35.6568741 C35.3963658,34.6732942 34.5986185,33.8759449 33.6145475,33.8759449 L26.4872745,33.8759449 Z M40.9200024,33.8759449 C39.9359315,33.8759449 39.1381842,34.6732942 39.1381842,35.6568741 L39.1381842,42.7805907 C39.1381842,43.7641707 39.9359315,44.5615199 40.9200024,44.5615199 L48.0472755,44.5615199 C49.0313464,44.5615199 49.8290937,43.7641707 49.8290937,42.7805907 L49.8290937,35.6568741 C49.8290937,34.6732942 49.0313464,33.8759449 48.0472755,33.8759449 L40.9200024,33.8759449 Z M55.1745485,33.8759449 C54.1904776,33.8759449 53.3927303,34.6732942 53.3927303,35.6568741 L53.3927303,42.7805907 C53.3927303,43.7641707 54.1904776,44.5615199 55.1745485,44.5615199 L62.3018216,44.5615199 C63.2858926,44.5615199 64.0836399,43.7641707 64.0836399,42.7805907 L64.0836399,35.6568741 C64.0836399,34.6732942 63.2858926,33.8759449 62.3018216,33.8759449 L55.1745485,33.8759449 Z M69.6072765,33.8759449 C68.6232055,33.8759449 67.8254582,34.6732942 67.8254582,35.6568741 L67.8254582,42.7805907 C67.8254582,43.7641707 68.6232055,44.5615199 69.6072765,44.5615199 L76.7345495,44.5615199 C77.7186205,44.5615199 78.5163678,43.7641707 78.5163678,42.7805907 L78.5163678,35.6568741 C78.5163678,34.6732942 77.7186205,33.8759449 76.7345495,33.8759449 L69.6072765,33.8759449 Z M83.8618226,33.8759449 C82.8777516,33.8759449 82.0800043,34.6732942 82.0800043,35.6568741 L82.0800043,42.7805907 C82.0800043,43.7641707 82.8777516,44.5615199 83.8618226,44.5615199 L90.9890956,44.5615199 C91.9731666,44.5615199 92.7709139,43.7641707 92.7709139,42.7805907 L92.7709139,35.6568741 C92.7709139,34.6732942 91.9731666,33.8759449 90.9890956,33.8759449 L83.8618226,33.8759449 Z M98.2945505,33.8759449 C97.3104795,33.8759449 96.5127322,34.6732942 96.5127322,35.6568741 L96.5127322,42.7805907 C96.5127322,43.7641707 97.3104795,44.5615199 98.2945505,44.5615199 L105.421824,44.5615199 C106.405895,44.5615199 107.203642,43.7641707 107.203642,42.7805907 L107.203642,35.6568741 C107.203642,34.6732942 106.405895,33.8759449 105.421824,33.8759449 L98.2945505,33.8759449 Z M112.549097,33.8759449 C111.565026,33.8759449 110.767278,34.6732942 110.767278,35.6568741 L110.767278,42.7805907 C110.767278,43.7641707 111.565026,44.5615199 112.549097,44.5615199 L119.67637,44.5615199 C120.660441,44.5615199 121.458188,43.7641707 121.458188,42.7805907 L121.458188,35.6568741 C121.458188,34.6732942 120.660441,33.8759449 119.67637,33.8759449 L112.549097,33.8759449 Z M126.981825,33.8759449 C125.997754,33.8759449 125.200006,34.6732942 125.200006,35.6568741 L125.200006,42.7805907 C125.200006,43.7641707 125.997754,44.5615199 126.981825,44.5615199 L134.109098,44.5615199 C135.093169,44.5615199 135.890916,43.7641707 135.890916,42.7805907 L135.890916,35.6568741 C135.890916,34.6732942 135.093169,33.8759449 134.109098,33.8759449 L126.981825,33.8759449 Z M141.236371,33.8759449 C140.2523,33.8759449 139.454552,34.6732942 139.454552,35.6568741 L139.454552,42.7805907 C139.454552,43.7641707 140.2523,44.5615199 141.236371,44.5615199 L148.363644,44.5615199 C149.347715,44.5615199 150.145462,43.7641707 150.145462,42.7805907 L150.145462,35.6568741 C150.145462,34.6732942 149.347715,33.8759449 148.363644,33.8759449 L141.236371,33.8759449 Z M-2.19999955,48.1233782 C-3.1840706,48.1233782 -3.98181781,48.9207275 -3.98181781,49.9043074 L-3.98181781,57.028024 C-3.98181781,58.011604 -3.1840706,58.8089532 -2.19999955,58.8089532 L13.8363648,58.8089532 C14.8204358,58.8089532 15.6181831,58.011604 15.6181831,57.028024 L15.6181831,49.9043074 C15.6181831,48.9207275 14.8204358,48.1233782 13.8363648,48.1233782 L-2.19999955,48.1233782 Z M20.2509106,48.1233782 C19.2668396,48.1233782 18.4690923,48.9207275 18.4690923,49.9043074 L18.4690923,57.028024 C18.4690923,58.011604 19.2668396,58.8089532 20.2509106,58.8089532 L27.3781836,58.8089532 C28.3622546,58.8089532 29.1600019,58.011604 29.1600019,57.028024 L29.1600019,49.9043074 C29.1600019,48.9207275 28.3622546,48.1233782 27.3781836,48.1233782 L20.2509106,48.1233782 Z M33.7927294,48.1233782 C32.8086584,48.1233782 32.0109111,48.9207275 32.0109111,49.9043074 L32.0109111,57.028024 C32.0109111,58.011604 32.8086584,58.8089532 33.7927294,58.8089532 L40.9200024,58.8089532 C41.9040734,58.8089532 42.7018207,58.011604 42.7018207,57.028024 L42.7018207,49.9043074 C42.7018207,48.9207275 41.9040734,48.1233782 40.9200024,48.1233782 L33.7927294,48.1233782 Z M47.3345482,48.1233782 C46.3504772,48.1233782 45.5527299,48.9207275 45.5527299,49.9043074 L45.5527299,57.028024 C45.5527299,58.011604 46.3504772,58.8089532 47.3345482,58.8089532 L54.4618212,58.8089532 C55.4458922,58.8089532 56.2436395,58.011604 56.2436395,57.028024 L56.2436395,49.9043074 C56.2436395,48.9207275 55.4458922,48.1233782 54.4618212,48.1233782 L47.3345482,48.1233782 Z M60.876367,48.1233782 C59.892296,48.1233782 59.0945487,48.9207275 59.0945487,49.9043074 L59.0945487,57.028024 C59.0945487,58.011604 59.892296,58.8089532 60.876367,58.8089532 L68.00364,58.8089532 C68.987711,58.8089532 69.7854583,58.011604 69.7854583,57.028024 L69.7854583,49.9043074 C69.7854583,48.9207275 68.987711,48.1233782 68.00364,48.1233782 L60.876367,48.1233782 Z M74.4181858,48.1233782 C73.4341148,48.1233782 72.6363675,48.9207275 72.6363675,49.9043074 L72.6363675,57.028024 C72.6363675,58.011604 73.4341148,58.8089532 74.4181858,58.8089532 L81.5454588,58.8089532 C82.5295298,58.8089532 83.3272771,58.011604 83.3272771,57.028024 L83.3272771,49.9043074 C83.3272771,48.9207275 82.5295298,48.1233782 81.5454588,48.1233782 L74.4181858,48.1233782 Z M87.9600046,48.1233782 C86.9759336,48.1233782 86.1781863,48.9207275 86.1781863,49.9043074 L86.1781863,57.028024 C86.1781863,58.011604 86.9759336,58.8089532 87.9600046,58.8089532 L95.0872776,58.8089532 C96.0713486,58.8089532 96.8690959,58.011604 96.8690959,57.028024 L96.8690959,49.9043074 C96.8690959,48.9207275 96.0713486,48.1233782 95.0872776,48.1233782 L87.9600046,48.1233782 Z M101.323642,48.1233782 C100.339571,48.1233782 99.5418233,48.9207275 99.5418233,49.9043074 L99.5418233,57.028024 C99.5418233,58.011604 100.339571,58.8089532 101.323642,58.8089532 L108.450915,58.8089532 C109.434986,58.8089532 110.232733,58.011604 110.232733,57.028024 L110.232733,49.9043074 C110.232733,48.9207275 109.434986,48.1233782 108.450915,48.1233782 L101.323642,48.1233782 Z M114.86546,48.1233782 C113.881389,48.1233782 113.083642,48.9207275 113.083642,49.9043074 L113.083642,57.028024 C113.083642,58.011604 113.881389,58.8089532 114.86546,58.8089532 L121.992733,58.8089532 C122.976804,58.8089532 123.774552,58.011604 123.774552,57.028024 L123.774552,49.9043074 C123.774552,48.9207275 122.976804,48.1233782 121.992733,48.1233782 L114.86546,48.1233782 Z M128.407279,48.1233782 C127.423208,48.1233782 126.625461,48.9207275 126.625461,49.9043074 L126.625461,57.028024 C126.625461,58.011604 127.423208,58.8089532 128.407279,58.8089532 L135.534552,58.8089532 C136.518623,58.8089532 137.31637,58.011604 137.31637,57.028024 L137.31637,49.9043074 C137.31637,48.9207275 136.518623,48.1233782 135.534552,48.1233782 L128.407279,48.1233782 Z M141.949098,48.1233782 C140.965027,48.1233782 140.16728,48.9207275 140.16728,49.9043074 L140.16728,57.028024 C140.16728,58.011604 140.965027,58.8089532 141.949098,58.8089532 L149.076371,58.8089532 C150.060442,58.8089532 150.858189,58.011604 150.858189,57.028024 L150.858189,49.9043074 C150.858189,48.9207275 150.060442,48.1233782 149.076371,48.1233782 L141.949098,48.1233782 Z M155.490917,48.1233782 C154.506846,48.1233782 153.709099,48.9207275 153.709099,49.9043074 L153.709099,57.028024 C153.709099,58.011604 154.506846,58.8089532 155.490917,58.8089532 L162.61819,58.8089532 C163.602261,58.8089532 164.400008,58.011604 164.400008,57.028024 L164.400008,49.9043074 C164.400008,48.9207275 163.602261,48.1233782 162.61819,48.1233782 L155.490917,48.1233782 Z M169.032736,48.1233782 C168.048664,48.1233782 167.250917,48.9207275 167.250917,49.9043074 L167.250917,57.028024 C167.250917,58.011604 168.048664,58.8089532 169.032736,58.8089532 L176.160009,58.8089532 C177.14408,58.8089532 177.941827,58.011604 177.941827,57.028024 L177.941827,49.9043074 C177.941827,48.9207275 177.14408,48.1233782 176.160009,48.1233782 L169.032736,48.1233782 Z M182.574554,48.1233782 C181.590483,48.1233782 180.792736,48.9207275 180.792736,49.9043074 L180.792736,57.028024 C180.792736,58.011604 181.590483,58.8089532 182.574554,58.8089532 L189.701827,58.8089532 C190.685899,58.8089532 191.483646,58.011604 191.483646,57.028024 L191.483646,49.9043074 C191.483646,48.9207275 190.685899,48.1233782 189.701827,48.1233782 L182.574554,48.1233782 Z M-2.19999955,62.3708115 C-3.1840706,62.3708115 -3.98181781,63.1681607 -3.98181781,64.1517407 L-3.98181781,71.2754573 C-3.98181781,72.2590372 -3.1840706,73.0563865 -2.19999955,73.0563865 L21.1418197,73.0563865 C22.1258907,73.0563865 22.923638,72.2590372 22.923638,71.2754573 L22.923638,64.1517407 C22.923638,63.1681607 22.1258907,62.3708115 21.1418197,62.3708115 L-2.19999955,62.3708115 Z M27.9127291,62.3708115 C26.9286581,62.3708115 26.1309108,63.1681607 26.1309108,64.1517407 L26.1309108,71.2754573 C26.1309108,72.2590372 26.9286581,73.0563865 27.9127291,73.0563865 L35.0400022,73.0563865 C36.0240731,73.0563865 36.8218204,72.2590372 36.8218204,71.2754573 L36.8218204,64.1517407 C36.8218204,63.1681607 36.0240731,62.3708115 35.0400022,62.3708115 L27.9127291,62.3708115 Z M41.6327297,62.3708115 C40.6486588,62.3708115 39.8509115,63.1681607 39.8509115,64.1517407 L39.8509115,71.2754573 C39.8509115,72.2590372 40.6486588,73.0563865 41.6327297,73.0563865 L48.7600028,73.0563865 C49.7440738,73.0563865 50.541821,72.2590372 50.541821,71.2754573 L50.541821,64.1517407 C50.541821,63.1681607 49.7440738,62.3708115 48.7600028,62.3708115 L41.6327297,62.3708115 Z M55.5309122,62.3708115 C54.5468412,62.3708115 53.7490939,63.1681607 53.7490939,64.1517407 L53.7490939,71.2754573 C53.7490939,72.2590372 54.5468412,73.0563865 55.5309122,73.0563865 L62.6581852,73.0563865 C63.6422562,73.0563865 64.4400035,72.2590372 64.4400035,71.2754573 L64.4400035,64.1517407 C64.4400035,63.1681607 63.6422562,62.3708115 62.6581852,62.3708115 L55.5309122,62.3708115 Z M69.4290946,62.3708115 C68.4450237,62.3708115 67.6472764,63.1681607 67.6472764,64.1517407 L67.6472764,71.2754573 C67.6472764,72.2590372 68.4450237,73.0563865 69.4290946,73.0563865 L76.5563677,73.0563865 C77.5404387,73.0563865 78.338186,72.2590372 78.338186,71.2754573 L78.338186,64.1517407 C78.338186,63.1681607 77.5404387,62.3708115 76.5563677,62.3708115 L69.4290946,62.3708115 Z M83.3272771,62.3708115 C82.3432061,62.3708115 81.5454588,63.1681607 81.5454588,64.1517407 L81.5454588,71.2754573 C81.5454588,72.2590372 82.3432061,73.0563865 83.3272771,73.0563865 L90.4545502,73.0563865 C91.4386211,73.0563865 92.2363684,72.2590372 92.2363684,71.2754573 L92.2363684,64.1517407 C92.2363684,63.1681607 91.4386211,62.3708115 90.4545502,62.3708115 L83.3272771,62.3708115 Z M97.0472777,62.3708115 C96.0632068,62.3708115 95.2654595,63.1681607 95.2654595,64.1517407 L95.2654595,71.2754573 C95.2654595,72.2590372 96.0632068,73.0563865 97.0472777,73.0563865 L104.174551,73.0563865 C105.158622,73.0563865 105.956369,72.2590372 105.956369,71.2754573 L105.956369,64.1517407 C105.956369,63.1681607 105.158622,62.3708115 104.174551,62.3708115 L97.0472777,62.3708115 Z M110.94546,62.3708115 C109.961389,62.3708115 109.163642,63.1681607 109.163642,64.1517407 L109.163642,71.2754573 C109.163642,72.2590372 109.961389,73.0563865 110.94546,73.0563865 L118.072733,73.0563865 C119.056804,73.0563865 119.854552,72.2590372 119.854552,71.2754573 L119.854552,64.1517407 C119.854552,63.1681607 119.056804,62.3708115 118.072733,62.3708115 L110.94546,62.3708115 Z M124.843643,62.3708115 C123.859572,62.3708115 123.061824,63.1681607 123.061824,64.1517407 L123.061824,71.2754573 C123.061824,72.2590372 123.859572,73.0563865 124.843643,73.0563865 L131.970916,73.0563865 C132.954987,73.0563865 133.752734,72.2590372 133.752734,71.2754573 L133.752734,64.1517407 C133.752734,63.1681607 132.954987,62.3708115 131.970916,62.3708115 L124.843643,62.3708115 Z M138.741825,62.3708115 C137.757754,62.3708115 136.960007,63.1681607 136.960007,64.1517407 L136.960007,71.2754573 C136.960007,72.2590372 137.757754,73.0563865 138.741825,73.0563865 L145.869098,73.0563865 C146.853169,73.0563865 147.650916,72.2590372 147.650916,71.2754573 L147.650916,64.1517407 C147.650916,63.1681607 146.853169,62.3708115 145.869098,62.3708115 L138.741825,62.3708115 Z M152.461826,62.3708115 C151.477755,62.3708115 150.680007,63.1681607 150.680007,64.1517407 L150.680007,71.2754573 C150.680007,72.2590372 151.477755,73.0563865 152.461826,73.0563865 L159.589099,73.0563865 C160.57317,73.0563865 161.370917,72.2590372 161.370917,71.2754573 L161.370917,64.1517407 C161.370917,63.1681607 160.57317,62.3708115 159.589099,62.3708115 L152.461826,62.3708115 Z M166.360008,62.3708115 C165.375937,62.3708115 164.57819,63.1681607 164.57819,64.1517407 L164.57819,71.2754573 C164.57819,72.2590372 165.375937,73.0563865 166.360008,73.0563865 L189.701827,73.0563865 C190.685899,73.0563865 191.483646,72.2590372 191.483646,71.2754573 L191.483646,64.1517407 C191.483646,63.1681607 190.685899,62.3708115 189.701827,62.3708115 L166.360008,62.3708115 Z M-2.19999955,76.6182448 C-3.1840706,76.6182448 -3.98181781,77.415594 -3.98181781,78.399174 L-3.98181781,85.5228906 C-3.98181781,86.5064705 -3.1840706,87.3038198 -2.19999955,87.3038198 L28.2690928,87.3038198 C29.2531637,87.3038198 30.050911,86.5064705 30.050911,85.5228906 L30.050911,78.399174 C30.050911,77.415594 29.2531637,76.6182448 28.2690928,76.6182448 L-2.19999955,76.6182448 Z M51.7890938,92.6466072 C50.8050229,92.6466072 50.0072756,93.4439565 50.0072756,94.4275364 L50.0072756,101.551253 C50.0072756,102.534833 50.8050229,103.332182 51.7890938,103.332182 L121.992733,103.332182 C122.976804,103.332182 123.774552,102.534833 123.774552,101.551253 L123.774552,94.4275364 C123.774552,93.4439565 122.976804,92.6466072 121.992733,92.6466072 L51.7890938,92.6466072 Z M45.9090936,92.6466072 L34.6836385,92.6466072 C33.6995675,92.6466072 32.9018202,93.4439565 32.9018202,94.4275364 L32.9018202,101.551253 C32.9018202,102.534833 33.6995675,103.332182 34.6836385,103.332182 L45.9090936,103.332182 C46.8931645,103.332182 47.6909118,102.534833 47.6909118,101.551253 L47.6909118,94.4275364 C47.6909118,93.4439565 46.8931645,92.6466072 45.9090936,92.6466072 Z M138.920007,92.6466072 L127.694552,92.6466072 C126.710481,92.6466072 125.912734,93.4439565 125.912734,94.4275364 L125.912734,101.551253 C125.912734,102.534833 126.710481,103.332182 127.694552,103.332182 L138.920007,103.332182 C139.904078,103.332182 140.701825,102.534833 140.701825,101.551253 L140.701825,94.4275364 C140.701825,93.4439565 139.904078,92.6466072 138.920007,92.6466072 Z M3.14545524,92.6466072 L-2.19999955,92.6466072 C-3.1840706,92.6466072 -3.98181781,93.4439565 -3.98181781,94.4275364 L-3.98181781,101.551253 C-3.98181781,102.534833 -3.1840706,103.332182 -2.19999955,103.332182 L3.14545524,103.332182 C4.12952629,103.332182 4.9272735,102.534833 4.9272735,101.551253 L4.9272735,94.4275364 C4.9272735,93.4439565 4.12952629,92.6466072 3.14545524,92.6466072 Z M15.9745467,92.6466072 L8.84727368,92.6466072 C7.86320272,92.6466072 7.06545542,93.4439565 7.06545542,94.4275364 L7.06545542,101.551253 C7.06545542,102.534833 7.86320272,103.332182 8.84727368,103.332182 L15.9745467,103.332182 C16.9586177,103.332182 17.756365,102.534833 17.756365,101.551253 L17.756365,94.4275364 C17.756365,93.4439565 16.9586177,92.6466072 15.9745467,92.6466072 Z M28.9818201,92.6466072 L21.854547,92.6466072 C20.870476,92.6466072 20.0727287,93.4439565 20.0727287,94.4275364 L20.0727287,101.551253 C20.0727287,102.534833 20.870476,103.332182 21.854547,103.332182 L28.9818201,103.332182 C29.965891,103.332182 30.7636383,102.534833 30.7636383,101.551253 L30.7636383,94.4275364 C30.7636383,93.4439565 29.965891,92.6466072 28.9818201,92.6466072 Z M151.92728,92.6466072 L144.800007,92.6466072 C143.815936,92.6466072 143.018189,93.4439565 143.018189,94.4275364 L143.018189,101.551253 C143.018189,102.534833 143.815936,103.332182 144.800007,103.332182 L151.92728,103.332182 C152.911351,103.332182 153.709099,102.534833 153.709099,101.551253 L153.709099,94.4275364 C153.709099,93.4439565 152.911351,92.6466072 151.92728,92.6466072 Z M177.2291,99.0579522 L170.101827,99.0579522 C169.117755,99.0579522 168.320008,99.8553015 168.320008,100.838881 L168.320008,101.551253 C168.320008,102.534833 169.117755,103.332182 170.101827,103.332182 L177.2291,103.332182 C178.213171,103.332182 179.010918,102.534833 179.010918,101.551253 L179.010918,100.838881 C179.010918,99.8553015 178.213171,99.0579522 177.2291,99.0579522 Z M177.2291,92.6466072 L170.101827,92.6466072 C169.117755,92.6466072 168.320008,93.4439565 168.320008,94.4275364 L168.320008,95.1399081 C168.320008,96.123488 169.117755,96.9208372 170.101827,96.9208372 L177.2291,96.9208372 C178.213171,96.9208372 179.010918,96.123488 179.010918,95.1399081 L179.010918,94.4275364 C179.010918,93.4439565 178.213171,92.6466072 177.2291,92.6466072 Z M164.756372,99.0579522 L157.629099,99.0579522 C156.645028,99.0579522 155.84728,99.8553015 155.84728,100.838881 L155.84728,101.551253 C155.84728,102.534833 156.645028,103.332182 157.629099,103.332182 L164.756372,103.332182 C165.740443,103.332182 166.53819,102.534833 166.53819,101.551253 L166.53819,100.838881 C166.53819,99.8553015 165.740443,99.0579522 164.756372,99.0579522 Z M189.701827,99.0579522 L182.574554,99.0579522 C181.590483,99.0579522 180.792736,99.8553015 180.792736,100.838881 L180.792736,101.551253 C180.792736,102.534833 181.590483,103.332182 182.574554,103.332182 L189.701827,103.332182 C190.685899,103.332182 191.483646,102.534833 191.483646,101.551253 L191.483646,100.838881 C191.483646,99.8553015 190.685899,99.0579522 189.701827,99.0579522 Z M35.0400022,76.6182448 C34.0559312,76.6182448 33.2581839,77.415594 33.2581839,78.399174 L33.2581839,85.5228906 C33.2581839,86.5064705 34.0559312,87.3038198 35.0400022,87.3038198 L42.1672752,87.3038198 C43.1513462,87.3038198 43.9490935,86.5064705 43.9490935,85.5228906 L43.9490935,78.399174 C43.9490935,77.415594 43.1513462,76.6182448 42.1672752,76.6182448 L35.0400022,76.6182448 Z M48.7600028,76.6182448 C47.7759318,76.6182448 46.9781845,77.415594 46.9781845,78.399174 L46.9781845,85.5228906 C46.9781845,86.5064705 47.7759318,87.3038198 48.7600028,87.3038198 L55.8872758,87.3038198 C56.8713468,87.3038198 57.6690941,86.5064705 57.6690941,85.5228906 L57.6690941,78.399174 C57.6690941,77.415594 56.8713468,76.6182448 55.8872758,76.6182448 L48.7600028,76.6182448 Z M62.6581852,76.6182448 C61.6741143,76.6182448 60.876367,77.415594 60.876367,78.399174 L60.876367,85.5228906 C60.876367,86.5064705 61.6741143,87.3038198 62.6581852,87.3038198 L69.7854583,87.3038198 C70.7695293,87.3038198 71.5672766,86.5064705 71.5672766,85.5228906 L71.5672766,78.399174 C71.5672766,77.415594 70.7695293,76.6182448 69.7854583,76.6182448 L62.6581852,76.6182448 Z M76.3781859,76.6182448 C75.3941149,76.6182448 74.5963676,77.415594 74.5963676,78.399174 L74.5963676,85.5228906 C74.5963676,86.5064705 75.3941149,87.3038198 76.3781859,87.3038198 L83.5054589,87.3038198 C84.4895299,87.3038198 85.2872772,86.5064705 85.2872772,85.5228906 L85.2872772,78.399174 C85.2872772,77.415594 84.4895299,76.6182448 83.5054589,76.6182448 L76.3781859,76.6182448 Z M90.2763683,76.6182448 C89.2922974,76.6182448 88.4945501,77.415594 88.4945501,78.399174 L88.4945501,85.5228906 C88.4945501,86.5064705 89.2922974,87.3038198 90.2763683,87.3038198 L97.4036414,87.3038198 C98.3877123,87.3038198 99.1854596,86.5064705 99.1854596,85.5228906 L99.1854596,78.399174 C99.1854596,77.415594 98.3877123,76.6182448 97.4036414,76.6182448 L90.2763683,76.6182448 Z M103.996369,76.6182448 C103.012298,76.6182448 102.214551,77.415594 102.214551,78.399174 L102.214551,85.5228906 C102.214551,86.5064705 103.012298,87.3038198 103.996369,87.3038198 L111.123642,87.3038198 C112.107713,87.3038198 112.90546,86.5064705 112.90546,85.5228906 L112.90546,78.399174 C112.90546,77.415594 112.107713,76.6182448 111.123642,76.6182448 L103.996369,76.6182448 Z M117.894551,76.6182448 C116.91048,76.6182448 116.112733,77.415594 116.112733,78.399174 L116.112733,85.5228906 C116.112733,86.5064705 116.91048,87.3038198 117.894551,87.3038198 L125.021824,87.3038198 C126.005895,87.3038198 126.803643,86.5064705 126.803643,85.5228906 L126.803643,78.399174 C126.803643,77.415594 126.005895,76.6182448 125.021824,76.6182448 L117.894551,76.6182448 Z M131.614552,76.6182448 C130.630481,76.6182448 129.832734,77.415594 129.832734,78.399174 L129.832734,85.5228906 C129.832734,86.5064705 130.630481,87.3038198 131.614552,87.3038198 L138.741825,87.3038198 C139.725896,87.3038198 140.523643,86.5064705 140.523643,85.5228906 L140.523643,78.399174 C140.523643,77.415594 139.725896,76.6182448 138.741825,76.6182448 L131.614552,76.6182448 Z M145.512734,76.6182448 C144.528664,76.6182448 143.730916,77.415594 143.730916,78.399174 L143.730916,85.5228906 C143.730916,86.5064705 144.528664,87.3038198 145.512734,87.3038198 L152.640008,87.3038198 C153.624079,87.3038198 154.421826,86.5064705 154.421826,85.5228906 L154.421826,78.399174 C154.421826,77.415594 153.624079,76.6182448 152.640008,76.6182448 L145.512734,76.6182448 Z M159.232735,76.6182448 C158.248664,76.6182448 157.450917,77.415594 157.450917,78.399174 L157.450917,85.5228906 C157.450917,86.5064705 158.248664,87.3038198 159.232735,87.3038198 L189.701827,87.3038198 C190.685899,87.3038198 191.483646,86.5064705 191.483646,85.5228906 L191.483646,78.399174 C191.483646,77.415594 190.685899,76.6182448 189.701827,76.6182448 L159.232735,76.6182448 Z M169.923645,33.8759449 C168.939573,33.8759449 168.141826,34.6732942 168.141826,35.6568741 L168.141826,42.7805907 C168.141826,43.7641707 168.939573,44.5615199 169.923645,44.5615199 L189.701827,44.5615199 C190.685899,44.5615199 191.483646,43.7641707 191.483646,42.7805907 L191.483646,35.6568741 C191.483646,34.6732942 190.685899,33.8759449 189.701827,33.8759449 L169.923645,33.8759449 Z" id="path-3"></path>
        <path d="M407.559973,88.5341034 C406.575902,88.5341034 405.778154,89.3314526 405.778154,90.3150325 L405.778154,97.4387492 C405.778154,98.4223291 406.575902,99.2196783 407.559973,99.2196783 L414.687246,99.2196783 C415.671317,99.2196783 416.469064,98.4223291 416.469064,97.4387492 L416.469064,90.3150325 C416.469064,89.3314526 415.671317,88.5341034 414.687246,88.5341034 L407.559973,88.5341034 Z M249.690874,88.5341034 C248.706803,88.5341034 247.909056,89.3314526 247.909056,90.3150325 L247.909056,97.4387492 C247.909056,98.4223291 248.706803,99.2196783 249.690874,99.2196783 L256.818147,99.2196783 C257.802218,99.2196783 258.599966,98.4223291 258.599966,97.4387492 L258.599966,90.3150325 C258.599966,89.3314526 257.802218,88.5341034 256.818147,88.5341034 L249.690874,88.5341034 Z M245.236329,70.7248118 L446.047247,70.7248118 C448.99946,70.7248118 451.392702,73.1168592 451.392702,76.0675993 L451.392702,159.77127 C451.392702,162.72201 448.99946,165.114057 446.047247,165.114057 L245.236329,165.114057 C242.284116,165.114057 239.890874,162.72201 239.890874,159.77127 L239.890874,76.0675993 C239.890874,73.1168592 242.284116,70.7248118 245.236329,70.7248118 Z M249.690874,77.8485284 C248.706803,77.8485284 247.909056,78.6458776 247.909056,79.6294576 L247.909056,81.4103867 C247.909056,82.3939668 248.706803,83.1913159 249.690874,83.1913159 L256.818147,83.1913159 C257.802218,83.1913159 258.599966,82.3939668 258.599966,81.4103867 L258.599966,79.6294576 C258.599966,78.6458776 257.802218,77.8485284 256.818147,77.8485284 L249.690874,77.8485284 Z M263.945421,77.8485284 C262.96135,77.8485284 262.163602,78.6458776 262.163602,79.6294576 L262.163602,81.4103867 C262.163602,82.3939668 262.96135,83.1913159 263.945421,83.1913159 L271.072694,83.1913159 C272.056765,83.1913159 272.854512,82.3939668 272.854512,81.4103867 L272.854512,79.6294576 C272.854512,78.6458776 272.056765,77.8485284 271.072694,77.8485284 L263.945421,77.8485284 Z M278.199967,77.8485284 C277.215896,77.8485284 276.418148,78.6458776 276.418148,79.6294576 L276.418148,81.4103867 C276.418148,82.3939668 277.215896,83.1913159 278.199967,83.1913159 L285.32724,83.1913159 C286.311311,83.1913159 287.109058,82.3939668 287.109058,81.4103867 L287.109058,79.6294576 C287.109058,78.6458776 286.311311,77.8485284 285.32724,77.8485284 L278.199967,77.8485284 Z M292.454513,77.8485284 C291.470442,77.8485284 290.672694,78.6458776 290.672694,79.6294576 L290.672694,81.4103867 C290.672694,82.3939668 291.470442,83.1913159 292.454513,83.1913159 L299.581786,83.1913159 C300.565857,83.1913159 301.363604,82.3939668 301.363604,81.4103867 L301.363604,79.6294576 C301.363604,78.6458776 300.565857,77.8485284 299.581786,77.8485284 L292.454513,77.8485284 Z M306.709059,77.8485284 C305.724988,77.8485284 304.927241,78.6458776 304.927241,79.6294576 L304.927241,81.4103867 C304.927241,82.3939668 305.724988,83.1913159 306.709059,83.1913159 L313.836332,83.1913159 C314.820403,83.1913159 315.61815,82.3939668 315.61815,81.4103867 L315.61815,79.6294576 C315.61815,78.6458776 314.820403,77.8485284 313.836332,77.8485284 L306.709059,77.8485284 Z M320.963605,77.8485284 C319.979534,77.8485284 319.181787,78.6458776 319.181787,79.6294576 L319.181787,81.4103867 C319.181787,82.3939668 319.979534,83.1913159 320.963605,83.1913159 L328.090878,83.1913159 C329.074949,83.1913159 329.872696,82.3939668 329.872696,81.4103867 L329.872696,79.6294576 C329.872696,78.6458776 329.074949,77.8485284 328.090878,77.8485284 L320.963605,77.8485284 Z M335.218151,77.8485284 C334.23408,77.8485284 333.436333,78.6458776 333.436333,79.6294576 L333.436333,81.4103867 C333.436333,82.3939668 334.23408,83.1913159 335.218151,83.1913159 L342.345424,83.1913159 C343.329495,83.1913159 344.127242,82.3939668 344.127242,81.4103867 L344.127242,79.6294576 C344.127242,78.6458776 343.329495,77.8485284 342.345424,77.8485284 L335.218151,77.8485284 Z M349.472697,77.8485284 C348.488626,77.8485284 347.690879,78.6458776 347.690879,79.6294576 L347.690879,81.4103867 C347.690879,82.3939668 348.488626,83.1913159 349.472697,83.1913159 L356.59997,83.1913159 C357.584041,83.1913159 358.381789,82.3939668 358.381789,81.4103867 L358.381789,79.6294576 C358.381789,78.6458776 357.584041,77.8485284 356.59997,77.8485284 L349.472697,77.8485284 Z M363.192698,77.8485284 C362.208627,77.8485284 361.41088,78.6458776 361.41088,79.6294576 L361.41088,81.4103867 C361.41088,82.3939668 362.208627,83.1913159 363.192698,83.1913159 L370.319971,83.1913159 C371.304042,83.1913159 372.101789,82.3939668 372.101789,81.4103867 L372.101789,79.6294576 C372.101789,78.6458776 371.304042,77.8485284 370.319971,77.8485284 L363.192698,77.8485284 Z M377.447244,77.8485284 C376.463173,77.8485284 375.665426,78.6458776 375.665426,79.6294576 L375.665426,81.4103867 C375.665426,82.3939668 376.463173,83.1913159 377.447244,83.1913159 L384.574517,83.1913159 C385.558588,83.1913159 386.356335,82.3939668 386.356335,81.4103867 L386.356335,79.6294576 C386.356335,78.6458776 385.558588,77.8485284 384.574517,77.8485284 L377.447244,77.8485284 Z M391.70179,77.8485284 C390.717719,77.8485284 389.919972,78.6458776 389.919972,79.6294576 L389.919972,81.4103867 C389.919972,82.3939668 390.717719,83.1913159 391.70179,83.1913159 L398.829063,83.1913159 C399.813134,83.1913159 400.610881,82.3939668 400.610881,81.4103867 L400.610881,79.6294576 C400.610881,78.6458776 399.813134,77.8485284 398.829063,77.8485284 L391.70179,77.8485284 Z M405.956336,77.8485284 C404.972265,77.8485284 404.174518,78.6458776 404.174518,79.6294576 L404.174518,81.4103867 C404.174518,82.3939668 404.972265,83.1913159 405.956336,83.1913159 L413.083609,83.1913159 C414.06768,83.1913159 414.865427,82.3939668 414.865427,81.4103867 L414.865427,79.6294576 C414.865427,78.6458776 414.06768,77.8485284 413.083609,77.8485284 L405.956336,77.8485284 Z M420.210882,77.8485284 C419.226811,77.8485284 418.429064,78.6458776 418.429064,79.6294576 L418.429064,81.4103867 C418.429064,82.3939668 419.226811,83.1913159 420.210882,83.1913159 L427.338155,83.1913159 C428.322227,83.1913159 429.119974,82.3939668 429.119974,81.4103867 L429.119974,79.6294576 C429.119974,78.6458776 428.322227,77.8485284 427.338155,77.8485284 L420.210882,77.8485284 Z M434.465428,77.8485284 C433.481357,77.8485284 432.68361,78.6458776 432.68361,79.6294576 L432.68361,81.4103867 C432.68361,82.3939668 433.481357,83.1913159 434.465428,83.1913159 L441.592701,83.1913159 C442.576773,83.1913159 443.37452,82.3939668 443.37452,81.4103867 L443.37452,79.6294576 C443.37452,78.6458776 442.576773,77.8485284 441.592701,77.8485284 L434.465428,77.8485284 Z M263.945421,88.5341034 C262.96135,88.5341034 262.163602,89.3314526 262.163602,90.3150325 L262.163602,97.4387492 C262.163602,98.4223291 262.96135,99.2196783 263.945421,99.2196783 L271.072694,99.2196783 C272.056765,99.2196783 272.854512,98.4223291 272.854512,97.4387492 L272.854512,90.3150325 C272.854512,89.3314526 272.056765,88.5341034 271.072694,88.5341034 L263.945421,88.5341034 Z M278.378148,88.5341034 C277.394078,88.5341034 276.59633,89.3314526 276.59633,90.3150325 L276.59633,97.4387492 C276.59633,98.4223291 277.394078,99.2196783 278.378148,99.2196783 L285.505422,99.2196783 C286.489492,99.2196783 287.28724,98.4223291 287.28724,97.4387492 L287.28724,90.3150325 C287.28724,89.3314526 286.489492,88.5341034 285.505422,88.5341034 L278.378148,88.5341034 Z M292.810876,88.5341034 C291.826805,88.5341034 291.029058,89.3314526 291.029058,90.3150325 L291.029058,97.4387492 C291.029058,98.4223291 291.826805,99.2196783 292.810876,99.2196783 L299.938149,99.2196783 C300.92222,99.2196783 301.719968,98.4223291 301.719968,97.4387492 L301.719968,90.3150325 C301.719968,89.3314526 300.92222,88.5341034 299.938149,88.5341034 L292.810876,88.5341034 Z M307.065423,88.5341034 C306.081352,88.5341034 305.283604,89.3314526 305.283604,90.3150325 L305.283604,97.4387492 C305.283604,98.4223291 306.081352,99.2196783 307.065423,99.2196783 L314.192696,99.2196783 C315.176767,99.2196783 315.974514,98.4223291 315.974514,97.4387492 L315.974514,90.3150325 C315.974514,89.3314526 315.176767,88.5341034 314.192696,88.5341034 L307.065423,88.5341034 Z M321.49815,88.5341034 C320.514079,88.5341034 319.716332,89.3314526 319.716332,90.3150325 L319.716332,97.4387492 C319.716332,98.4223291 320.514079,99.2196783 321.49815,99.2196783 L328.625424,99.2196783 C329.609494,99.2196783 330.407242,98.4223291 330.407242,97.4387492 L330.407242,90.3150325 C330.407242,89.3314526 329.609494,88.5341034 328.625424,88.5341034 L321.49815,88.5341034 Z M335.752697,88.5341034 C334.768626,88.5341034 333.970878,89.3314526 333.970878,90.3150325 L333.970878,97.4387492 C333.970878,98.4223291 334.768626,99.2196783 335.752697,99.2196783 L342.87997,99.2196783 C343.864041,99.2196783 344.661788,98.4223291 344.661788,97.4387492 L344.661788,90.3150325 C344.661788,89.3314526 343.864041,88.5341034 342.87997,88.5341034 L335.752697,88.5341034 Z M350.185424,88.5341034 C349.201354,88.5341034 348.403606,89.3314526 348.403606,90.3150325 L348.403606,97.4387492 C348.403606,98.4223291 349.201354,99.2196783 350.185424,99.2196783 L357.312698,99.2196783 C358.296769,99.2196783 359.094516,98.4223291 359.094516,97.4387492 L359.094516,90.3150325 C359.094516,89.3314526 358.296769,88.5341034 357.312698,88.5341034 L350.185424,88.5341034 Z M364.439971,88.5341034 C363.4559,88.5341034 362.658152,89.3314526 362.658152,90.3150325 L362.658152,97.4387492 C362.658152,98.4223291 363.4559,99.2196783 364.439971,99.2196783 L371.567244,99.2196783 C372.551315,99.2196783 373.349062,98.4223291 373.349062,97.4387492 L373.349062,90.3150325 C373.349062,89.3314526 372.551315,88.5341034 371.567244,88.5341034 L364.439971,88.5341034 Z M378.872699,88.5341034 C377.888628,88.5341034 377.09088,89.3314526 377.09088,90.3150325 L377.09088,97.4387492 C377.09088,98.4223291 377.888628,99.2196783 378.872699,99.2196783 L385.999972,99.2196783 C386.984043,99.2196783 387.78179,98.4223291 387.78179,97.4387492 L387.78179,90.3150325 C387.78179,89.3314526 386.984043,88.5341034 385.999972,88.5341034 L378.872699,88.5341034 Z M393.127245,88.5341034 C392.143174,88.5341034 391.345426,89.3314526 391.345426,90.3150325 L391.345426,97.4387492 C391.345426,98.4223291 392.143174,99.2196783 393.127245,99.2196783 L400.254518,99.2196783 C401.238589,99.2196783 402.036336,98.4223291 402.036336,97.4387492 L402.036336,90.3150325 C402.036336,89.3314526 401.238589,88.5341034 400.254518,88.5341034 L393.127245,88.5341034 Z M249.690874,102.781537 C248.706803,102.781537 247.909056,103.578886 247.909056,104.562466 L247.909056,111.686182 C247.909056,112.669762 248.706803,113.467112 249.690874,113.467112 L265.727239,113.467112 C266.71131,113.467112 267.509057,112.669762 267.509057,111.686182 L267.509057,104.562466 C267.509057,103.578886 266.71131,102.781537 265.727239,102.781537 L249.690874,102.781537 Z M272.141785,102.781537 C271.157714,102.781537 270.359966,103.578886 270.359966,104.562466 L270.359966,111.686182 C270.359966,112.669762 271.157714,113.467112 272.141785,113.467112 L279.269058,113.467112 C280.253129,113.467112 281.050876,112.669762 281.050876,111.686182 L281.050876,104.562466 C281.050876,103.578886 280.253129,102.781537 279.269058,102.781537 L272.141785,102.781537 Z M285.683603,102.781537 C284.699532,102.781537 283.901785,103.578886 283.901785,104.562466 L283.901785,111.686182 C283.901785,112.669762 284.699532,113.467112 285.683603,113.467112 L292.810876,113.467112 C293.794947,113.467112 294.592695,112.669762 294.592695,111.686182 L294.592695,104.562466 C294.592695,103.578886 293.794947,102.781537 292.810876,102.781537 L285.683603,102.781537 Z M299.225422,102.781537 C298.241351,102.781537 297.443604,103.578886 297.443604,104.562466 L297.443604,111.686182 C297.443604,112.669762 298.241351,113.467112 299.225422,113.467112 L306.352695,113.467112 C307.336766,113.467112 308.134513,112.669762 308.134513,111.686182 L308.134513,104.562466 C308.134513,103.578886 307.336766,102.781537 306.352695,102.781537 L299.225422,102.781537 Z M312.767241,102.781537 C311.78317,102.781537 310.985423,103.578886 310.985423,104.562466 L310.985423,111.686182 C310.985423,112.669762 311.78317,113.467112 312.767241,113.467112 L319.894514,113.467112 C320.878585,113.467112 321.676332,112.669762 321.676332,111.686182 L321.676332,104.562466 C321.676332,103.578886 320.878585,102.781537 319.894514,102.781537 L312.767241,102.781537 Z M326.30906,102.781537 C325.324989,102.781537 324.527242,103.578886 324.527242,104.562466 L324.527242,111.686182 C324.527242,112.669762 325.324989,113.467112 326.30906,113.467112 L333.436333,113.467112 C334.420404,113.467112 335.218151,112.669762 335.218151,111.686182 L335.218151,104.562466 C335.218151,103.578886 334.420404,102.781537 333.436333,102.781537 L326.30906,102.781537 Z M339.850879,102.781537 C338.866808,102.781537 338.06906,103.578886 338.06906,104.562466 L338.06906,111.686182 C338.06906,112.669762 338.866808,113.467112 339.850879,113.467112 L346.978152,113.467112 C347.962223,113.467112 348.75997,112.669762 348.75997,111.686182 L348.75997,104.562466 C348.75997,103.578886 347.962223,102.781537 346.978152,102.781537 L339.850879,102.781537 Z M353.214516,102.781537 C352.230445,102.781537 351.432697,103.578886 351.432697,104.562466 L351.432697,111.686182 C351.432697,112.669762 352.230445,113.467112 353.214516,113.467112 L360.341789,113.467112 C361.32586,113.467112 362.123607,112.669762 362.123607,111.686182 L362.123607,104.562466 C362.123607,103.578886 361.32586,102.781537 360.341789,102.781537 L353.214516,102.781537 Z M366.756334,102.781537 C365.772263,102.781537 364.974516,103.578886 364.974516,104.562466 L364.974516,111.686182 C364.974516,112.669762 365.772263,113.467112 366.756334,113.467112 L373.883607,113.467112 C374.867678,113.467112 375.665426,112.669762 375.665426,111.686182 L375.665426,104.562466 C375.665426,103.578886 374.867678,102.781537 373.883607,102.781537 L366.756334,102.781537 Z M380.298153,102.781537 C379.314082,102.781537 378.516335,103.578886 378.516335,104.562466 L378.516335,111.686182 C378.516335,112.669762 379.314082,113.467112 380.298153,113.467112 L387.425426,113.467112 C388.409497,113.467112 389.207244,112.669762 389.207244,111.686182 L389.207244,104.562466 C389.207244,103.578886 388.409497,102.781537 387.425426,102.781537 L380.298153,102.781537 Z M393.839972,102.781537 C392.855901,102.781537 392.058154,103.578886 392.058154,104.562466 L392.058154,111.686182 C392.058154,112.669762 392.855901,113.467112 393.839972,113.467112 L400.967245,113.467112 C401.951316,113.467112 402.749063,112.669762 402.749063,111.686182 L402.749063,104.562466 C402.749063,103.578886 401.951316,102.781537 400.967245,102.781537 L393.839972,102.781537 Z M407.381791,102.781537 C406.39772,102.781537 405.599972,103.578886 405.599972,104.562466 L405.599972,111.686182 C405.599972,112.669762 406.39772,113.467112 407.381791,113.467112 L414.509064,113.467112 C415.493135,113.467112 416.290882,112.669762 416.290882,111.686182 L416.290882,104.562466 C416.290882,103.578886 415.493135,102.781537 414.509064,102.781537 L407.381791,102.781537 Z M420.92361,102.781537 C419.939538,102.781537 419.141791,103.578886 419.141791,104.562466 L419.141791,111.686182 C419.141791,112.669762 419.939538,113.467112 420.92361,113.467112 L428.050883,113.467112 C429.034954,113.467112 429.832701,112.669762 429.832701,111.686182 L429.832701,104.562466 C429.832701,103.578886 429.034954,102.781537 428.050883,102.781537 L420.92361,102.781537 Z M434.465428,102.781537 C433.481357,102.781537 432.68361,103.578886 432.68361,104.562466 L432.68361,111.686182 C432.68361,112.669762 433.481357,113.467112 434.465428,113.467112 L441.592701,113.467112 C442.576773,113.467112 443.37452,112.669762 443.37452,111.686182 L443.37452,104.562466 C443.37452,103.578886 442.576773,102.781537 441.592701,102.781537 L434.465428,102.781537 Z M249.690874,117.02897 C248.706803,117.02897 247.909056,117.826319 247.909056,118.809899 L247.909056,125.933616 C247.909056,126.917196 248.706803,127.714545 249.690874,127.714545 L273.032694,127.714545 C274.016765,127.714545 274.814512,126.917196 274.814512,125.933616 L274.814512,118.809899 C274.814512,117.826319 274.016765,117.02897 273.032694,117.02897 L249.690874,117.02897 Z M279.803603,117.02897 C278.819532,117.02897 278.021785,117.826319 278.021785,118.809899 L278.021785,125.933616 C278.021785,126.917196 278.819532,127.714545 279.803603,127.714545 L286.930876,127.714545 C287.914947,127.714545 288.712694,126.917196 288.712694,125.933616 L288.712694,118.809899 C288.712694,117.826319 287.914947,117.02897 286.930876,117.02897 L279.803603,117.02897 Z M293.523604,117.02897 C292.539533,117.02897 291.741785,117.826319 291.741785,118.809899 L291.741785,125.933616 C291.741785,126.917196 292.539533,127.714545 293.523604,127.714545 L300.650877,127.714545 C301.634948,127.714545 302.432695,126.917196 302.432695,125.933616 L302.432695,118.809899 C302.432695,117.826319 301.634948,117.02897 300.650877,117.02897 L293.523604,117.02897 Z M307.421786,117.02897 C306.437715,117.02897 305.639968,117.826319 305.639968,118.809899 L305.639968,125.933616 C305.639968,126.917196 306.437715,127.714545 307.421786,127.714545 L314.549059,127.714545 C315.53313,127.714545 316.330877,126.917196 316.330877,125.933616 L316.330877,118.809899 C316.330877,117.826319 315.53313,117.02897 314.549059,117.02897 L307.421786,117.02897 Z M321.319969,117.02897 C320.335898,117.02897 319.53815,117.826319 319.53815,118.809899 L319.53815,125.933616 C319.53815,126.917196 320.335898,127.714545 321.319969,127.714545 L328.447242,127.714545 C329.431313,127.714545 330.22906,126.917196 330.22906,125.933616 L330.22906,118.809899 C330.22906,117.826319 329.431313,117.02897 328.447242,117.02897 L321.319969,117.02897 Z M335.218151,117.02897 C334.23408,117.02897 333.436333,117.826319 333.436333,118.809899 L333.436333,125.933616 C333.436333,126.917196 334.23408,127.714545 335.218151,127.714545 L342.345424,127.714545 C343.329495,127.714545 344.127242,126.917196 344.127242,125.933616 L344.127242,118.809899 C344.127242,117.826319 343.329495,117.02897 342.345424,117.02897 L335.218151,117.02897 Z M348.938152,117.02897 C347.954081,117.02897 347.156333,117.826319 347.156333,118.809899 L347.156333,125.933616 C347.156333,126.917196 347.954081,127.714545 348.938152,127.714545 L356.065425,127.714545 C357.049496,127.714545 357.847243,126.917196 357.847243,125.933616 L357.847243,118.809899 C357.847243,117.826319 357.049496,117.02897 356.065425,117.02897 L348.938152,117.02897 Z M362.836334,117.02897 C361.852263,117.02897 361.054516,117.826319 361.054516,118.809899 L361.054516,125.933616 C361.054516,126.917196 361.852263,127.714545 362.836334,127.714545 L369.963607,127.714545 C370.947678,127.714545 371.745425,126.917196 371.745425,125.933616 L371.745425,118.809899 C371.745425,117.826319 370.947678,117.02897 369.963607,117.02897 L362.836334,117.02897 Z M376.734517,117.02897 C375.750446,117.02897 374.952698,117.826319 374.952698,118.809899 L374.952698,125.933616 C374.952698,126.917196 375.750446,127.714545 376.734517,127.714545 L383.86179,127.714545 C384.845861,127.714545 385.643608,126.917196 385.643608,125.933616 L385.643608,118.809899 C385.643608,117.826319 384.845861,117.02897 383.86179,117.02897 L376.734517,117.02897 Z M390.632699,117.02897 C389.648628,117.02897 388.850881,117.826319 388.850881,118.809899 L388.850881,125.933616 C388.850881,126.917196 389.648628,127.714545 390.632699,127.714545 L397.759972,127.714545 C398.744043,127.714545 399.54179,126.917196 399.54179,125.933616 L399.54179,118.809899 C399.54179,117.826319 398.744043,117.02897 397.759972,117.02897 L390.632699,117.02897 Z M404.3527,117.02897 C403.368629,117.02897 402.570881,117.826319 402.570881,118.809899 L402.570881,125.933616 C402.570881,126.917196 403.368629,127.714545 404.3527,127.714545 L411.479973,127.714545 C412.464044,127.714545 413.261791,126.917196 413.261791,125.933616 L413.261791,118.809899 C413.261791,117.826319 412.464044,117.02897 411.479973,117.02897 L404.3527,117.02897 Z M418.250882,117.02897 C417.266811,117.02897 416.469064,117.826319 416.469064,118.809899 L416.469064,125.933616 C416.469064,126.917196 417.266811,127.714545 418.250882,127.714545 L441.592701,127.714545 C442.576773,127.714545 443.37452,126.917196 443.37452,125.933616 L443.37452,118.809899 C443.37452,117.826319 442.576773,117.02897 441.592701,117.02897 L418.250882,117.02897 Z M249.690874,131.276403 C248.706803,131.276403 247.909056,132.073752 247.909056,133.057332 L247.909056,140.181049 C247.909056,141.164629 248.706803,141.961978 249.690874,141.961978 L280.159967,141.961978 C281.144038,141.961978 281.941785,141.164629 281.941785,140.181049 L281.941785,133.057332 C281.941785,132.073752 281.144038,131.276403 280.159967,131.276403 L249.690874,131.276403 Z M303.679968,147.304766 C302.695897,147.304766 301.89815,148.102115 301.89815,149.085695 L301.89815,156.209411 C301.89815,157.192991 302.695897,157.990341 303.679968,157.990341 L373.883607,157.990341 C374.867678,157.990341 375.665426,157.192991 375.665426,156.209411 L375.665426,149.085695 C375.665426,148.102115 374.867678,147.304766 373.883607,147.304766 L303.679968,147.304766 Z M297.799968,147.304766 L286.574512,147.304766 C285.590442,147.304766 284.792694,148.102115 284.792694,149.085695 L284.792694,156.209411 C284.792694,157.192991 285.590442,157.990341 286.574512,157.990341 L297.799968,157.990341 C298.784039,157.990341 299.581786,157.192991 299.581786,156.209411 L299.581786,149.085695 C299.581786,148.102115 298.784039,147.304766 297.799968,147.304766 Z M390.810881,147.304766 L379.585426,147.304766 C378.601355,147.304766 377.803608,148.102115 377.803608,149.085695 L377.803608,156.209411 C377.803608,157.192991 378.601355,157.990341 379.585426,157.990341 L390.810881,157.990341 C391.794952,157.990341 392.592699,157.192991 392.592699,156.209411 L392.592699,149.085695 C392.592699,148.102115 391.794952,147.304766 390.810881,147.304766 Z M255.036329,147.304766 L249.690874,147.304766 C248.706803,147.304766 247.909056,148.102115 247.909056,149.085695 L247.909056,156.209411 C247.909056,157.192991 248.706803,157.990341 249.690874,157.990341 L255.036329,157.990341 C256.0204,157.990341 256.818147,157.192991 256.818147,156.209411 L256.818147,149.085695 C256.818147,148.102115 256.0204,147.304766 255.036329,147.304766 Z M267.865421,147.304766 L260.738148,147.304766 C259.754077,147.304766 258.956329,148.102115 258.956329,149.085695 L258.956329,156.209411 C258.956329,157.192991 259.754077,157.990341 260.738148,157.990341 L267.865421,157.990341 C268.849492,157.990341 269.647239,157.192991 269.647239,156.209411 L269.647239,149.085695 C269.647239,148.102115 268.849492,147.304766 267.865421,147.304766 Z M280.872694,147.304766 L273.745421,147.304766 C272.76135,147.304766 271.963603,148.102115 271.963603,149.085695 L271.963603,156.209411 C271.963603,157.192991 272.76135,157.990341 273.745421,157.990341 L280.872694,157.990341 C281.856765,157.990341 282.654512,157.192991 282.654512,156.209411 L282.654512,149.085695 C282.654512,148.102115 281.856765,147.304766 280.872694,147.304766 Z M403.818154,147.304766 L396.690881,147.304766 C395.70681,147.304766 394.909063,148.102115 394.909063,149.085695 L394.909063,156.209411 C394.909063,157.192991 395.70681,157.990341 396.690881,157.990341 L403.818154,157.990341 C404.802225,157.990341 405.599972,157.192991 405.599972,156.209411 L405.599972,149.085695 C405.599972,148.102115 404.802225,147.304766 403.818154,147.304766 Z M429.119974,153.716111 L421.992701,153.716111 C421.008629,153.716111 420.210882,154.51346 420.210882,155.49704 L420.210882,156.209411 C420.210882,157.192991 421.008629,157.990341 421.992701,157.990341 L429.119974,157.990341 C430.104045,157.990341 430.901792,157.192991 430.901792,156.209411 L430.901792,155.49704 C430.901792,154.51346 430.104045,153.716111 429.119974,153.716111 Z M429.119974,147.304766 L421.992701,147.304766 C421.008629,147.304766 420.210882,148.102115 420.210882,149.085695 L420.210882,149.798066 C420.210882,150.781646 421.008629,151.578996 421.992701,151.578996 L429.119974,151.578996 C430.104045,151.578996 430.901792,150.781646 430.901792,149.798066 L430.901792,149.085695 C430.901792,148.102115 430.104045,147.304766 429.119974,147.304766 Z M416.647246,153.716111 L409.519973,153.716111 C408.535902,153.716111 407.738154,154.51346 407.738154,155.49704 L407.738154,156.209411 C407.738154,157.192991 408.535902,157.990341 409.519973,157.990341 L416.647246,157.990341 C417.631317,157.990341 418.429064,157.192991 418.429064,156.209411 L418.429064,155.49704 C418.429064,154.51346 417.631317,153.716111 416.647246,153.716111 Z M441.592701,153.716111 L434.465428,153.716111 C433.481357,153.716111 432.68361,154.51346 432.68361,155.49704 L432.68361,156.209411 C432.68361,157.192991 433.481357,157.990341 434.465428,157.990341 L441.592701,157.990341 C442.576773,157.990341 443.37452,157.192991 443.37452,156.209411 L443.37452,155.49704 C443.37452,154.51346 442.576773,153.716111 441.592701,153.716111 Z M286.930876,131.276403 C285.946805,131.276403 285.149058,132.073752 285.149058,133.057332 L285.149058,140.181049 C285.149058,141.164629 285.946805,141.961978 286.930876,141.961978 L294.058149,141.961978 C295.04222,141.961978 295.839967,141.164629 295.839967,140.181049 L295.839967,133.057332 C295.839967,132.073752 295.04222,131.276403 294.058149,131.276403 L286.930876,131.276403 Z M300.650877,131.276403 C299.666806,131.276403 298.869059,132.073752 298.869059,133.057332 L298.869059,140.181049 C298.869059,141.164629 299.666806,141.961978 300.650877,141.961978 L307.77815,141.961978 C308.762221,141.961978 309.559968,141.164629 309.559968,140.181049 L309.559968,133.057332 C309.559968,132.073752 308.762221,131.276403 307.77815,131.276403 L300.650877,131.276403 Z M314.549059,131.276403 C313.564988,131.276403 312.767241,132.073752 312.767241,133.057332 L312.767241,140.181049 C312.767241,141.164629 313.564988,141.961978 314.549059,141.961978 L321.676332,141.961978 C322.660403,141.961978 323.458151,141.164629 323.458151,140.181049 L323.458151,133.057332 C323.458151,132.073752 322.660403,131.276403 321.676332,131.276403 L314.549059,131.276403 Z M328.26906,131.276403 C327.284989,131.276403 326.487242,132.073752 326.487242,133.057332 L326.487242,140.181049 C326.487242,141.164629 327.284989,141.961978 328.26906,141.961978 L335.396333,141.961978 C336.380404,141.961978 337.178151,141.164629 337.178151,140.181049 L337.178151,133.057332 C337.178151,132.073752 336.380404,131.276403 335.396333,131.276403 L328.26906,131.276403 Z M342.167242,131.276403 C341.183171,131.276403 340.385424,132.073752 340.385424,133.057332 L340.385424,140.181049 C340.385424,141.164629 341.183171,141.961978 342.167242,141.961978 L349.294515,141.961978 C350.278586,141.961978 351.076334,141.164629 351.076334,140.181049 L351.076334,133.057332 C351.076334,132.073752 350.278586,131.276403 349.294515,131.276403 L342.167242,131.276403 Z M355.887243,131.276403 C354.903172,131.276403 354.105425,132.073752 354.105425,133.057332 L354.105425,140.181049 C354.105425,141.164629 354.903172,141.961978 355.887243,141.961978 L363.014516,141.961978 C363.998587,141.961978 364.796334,141.164629 364.796334,140.181049 L364.796334,133.057332 C364.796334,132.073752 363.998587,131.276403 363.014516,131.276403 L355.887243,131.276403 Z M369.785425,131.276403 C368.801354,131.276403 368.003607,132.073752 368.003607,133.057332 L368.003607,140.181049 C368.003607,141.164629 368.801354,141.961978 369.785425,141.961978 L376.912698,141.961978 C377.896769,141.961978 378.694517,141.164629 378.694517,140.181049 L378.694517,133.057332 C378.694517,132.073752 377.896769,131.276403 376.912698,131.276403 L369.785425,131.276403 Z M383.505426,131.276403 C382.521355,131.276403 381.723608,132.073752 381.723608,133.057332 L381.723608,140.181049 C381.723608,141.164629 382.521355,141.961978 383.505426,141.961978 L390.632699,141.961978 C391.61677,141.961978 392.414517,141.164629 392.414517,140.181049 L392.414517,133.057332 C392.414517,132.073752 391.61677,131.276403 390.632699,131.276403 L383.505426,131.276403 Z M397.403608,131.276403 C396.419538,131.276403 395.62179,132.073752 395.62179,133.057332 L395.62179,140.181049 C395.62179,141.164629 396.419538,141.961978 397.403608,141.961978 L404.530882,141.961978 C405.514952,141.961978 406.3127,141.164629 406.3127,140.181049 L406.3127,133.057332 C406.3127,132.073752 405.514952,131.276403 404.530882,131.276403 L397.403608,131.276403 Z M411.123609,131.276403 C410.139538,131.276403 409.341791,132.073752 409.341791,133.057332 L409.341791,140.181049 C409.341791,141.164629 410.139538,141.961978 411.123609,141.961978 L441.592701,141.961978 C442.576773,141.961978 443.37452,141.164629 443.37452,140.181049 L443.37452,133.057332 C443.37452,132.073752 442.576773,131.276403 441.592701,131.276403 L411.123609,131.276403 Z M421.814519,88.5341034 C420.830447,88.5341034 420.0327,89.3314526 420.0327,90.3150325 L420.0327,97.4387492 C420.0327,98.4223291 420.830447,99.2196783 421.814519,99.2196783 L441.592701,99.2196783 C442.576773,99.2196783 443.37452,98.4223291 443.37452,97.4387492 L443.37452,90.3150325 C443.37452,89.3314526 442.576773,88.5341034 441.592701,88.5341034 L421.814519,88.5341034 Z" id="path-5"></path>
    </defs>
    <g fill-rule="evenodd">
        <mask id="mask-2" fill="white">
            <use xlink:href="#path-1"></use>
        </mask>
        <g mask="url(#mask-2)">
            <g fill-rule="nonzero" transform="translate(93.750914, 63.261276) rotate(34.000000) translate(-93.750914, -63.261276) ">
                <use fill="#EF1A50" fill-rule="evenodd" xlink:href="#path-3"></use>
            </g>
            <g fill-rule="nonzero" transform="translate(345.641788, 117.919435) rotate(-31.000000) translate(-345.641788, -117.919435) ">
                <use fill="#EF1A50" fill-rule="evenodd" xlink:href="#path-5"></use>
            </g>
        </g>
    </g>
</svg>