<svg viewBox="0 0 320 152" version="1.1" xmlns="http://www.w3.org/2000/svg" xmlns:xlink="http://www.w3.org/1999/xlink">
    <title>Keyboard</title>
    <defs>
        <rect id="path-1" x="0" y="0" width="320" height="152"></rect>
    </defs>
    <g fill-rule="evenodd">
        <mask id="mask-2" fill="white">
          <use xlink:href="#path-1"></use>
        </mask>
        <g mask="url(#mask-2)">
          <path d="M69.9805638,-10.1240551 C68.9964928,-10.1240551 68.1987455,-9.32670582 68.1987455,-8.34312589 L68.1987455,-1.21940925 C68.1987455,-0.235829324 68.9964928,0.561519909 69.9805638,0.561519909 L77.1078368,0.561519909 C78.0919078,0.561519909 78.8896551,-0.235829324 78.8896551,-1.21940925 L78.8896551,-8.34312589 C78.8896551,-9.32670582 78.0919078,-10.1240551 77.1078368,-10.1240551 L69.9805638,-10.1240551 Z M-87.8885344,-10.1240551 C-88.8726054,-10.1240551 -89.6703526,-9.32670582 -89.6703526,-8.34312589 L-89.6703526,-1.21940925 C-89.6703526,-0.235829324 -88.8726054,0.561519909 -87.8885344,0.561519909 L-80.7612613,0.561519909 C-79.7771904,0.561519909 -78.9794431,-0.235829324 -78.9794431,-1.21940925 L-78.9794431,-8.34312589 C-78.9794431,-9.32670582 -79.7771904,-10.1240551 -80.7612613,-10.1240551 L-87.8885344,-10.1240551 Z M-92.34308,-27.9333467 L108.467838,-27.9333467 C111.420051,-27.9333467 113.813293,-25.5412992 113.813293,-22.5905592 L113.813293,61.1131114 C113.813293,64.0638513 111.420051,66.4558988 108.467838,66.4558988 L-92.34308,66.4558988 C-95.2952932,66.4558988 -97.6885348,64.0638513 -97.6885348,61.1131114 L-97.6885348,-22.5905592 C-97.6885348,-25.5412992 -95.2952932,-27.9333467 -92.34308,-27.9333467 Z M-87.8885344,-20.80963 C-88.8726054,-20.80963 -89.6703526,-20.0122809 -89.6703526,-19.0287009 L-89.6703526,-17.2477717 C-89.6703526,-16.2641917 -88.8726054,-15.4668425 -87.8885344,-15.4668425 L-80.7612613,-15.4668425 C-79.7771904,-15.4668425 -78.9794431,-16.2641917 -78.9794431,-17.2477717 L-78.9794431,-19.0287009 C-78.9794431,-20.0122809 -79.7771904,-20.80963 -80.7612613,-20.80963 L-87.8885344,-20.80963 Z M-73.6339883,-20.80963 C-74.6180592,-20.80963 -75.4158065,-20.0122809 -75.4158065,-19.0287009 L-75.4158065,-17.2477717 C-75.4158065,-16.2641917 -74.6180592,-15.4668425 -73.6339883,-15.4668425 L-66.5067152,-15.4668425 C-65.5226443,-15.4668425 -64.724897,-16.2641917 -64.724897,-17.2477717 L-64.724897,-19.0287009 C-64.724897,-20.0122809 -65.5226443,-20.80963 -66.5067152,-20.80963 L-73.6339883,-20.80963 Z M-59.3794422,-20.80963 C-60.3635131,-20.80963 -61.1612604,-20.0122809 -61.1612604,-19.0287009 L-61.1612604,-17.2477717 C-61.1612604,-16.2641917 -60.3635131,-15.4668425 -59.3794422,-15.4668425 L-52.2521691,-15.4668425 C-51.2680981,-15.4668425 -50.4703508,-16.2641917 -50.4703508,-17.2477717 L-50.4703508,-19.0287009 C-50.4703508,-20.0122809 -51.2680981,-20.80963 -52.2521691,-20.80963 L-59.3794422,-20.80963 Z M-45.1248961,-20.80963 C-46.108967,-20.80963 -46.9067143,-20.0122809 -46.9067143,-19.0287009 L-46.9067143,-17.2477717 C-46.9067143,-16.2641917 -46.108967,-15.4668425 -45.1248961,-15.4668425 L-37.997623,-15.4668425 C-37.013552,-15.4668425 -36.2158047,-16.2641917 -36.2158047,-17.2477717 L-36.2158047,-19.0287009 C-36.2158047,-20.0122809 -37.013552,-20.80963 -37.997623,-20.80963 L-45.1248961,-20.80963 Z M-30.8703499,-20.80963 C-31.8544209,-20.80963 -32.6521682,-20.0122809 -32.6521682,-19.0287009 L-32.6521682,-17.2477717 C-32.6521682,-16.2641917 -31.8544209,-15.4668425 -30.8703499,-15.4668425 L-23.7430769,-15.4668425 C-22.7590059,-15.4668425 -21.9612586,-16.2641917 -21.9612586,-17.2477717 L-21.9612586,-19.0287009 C-21.9612586,-20.0122809 -22.7590059,-20.80963 -23.7430769,-20.80963 L-30.8703499,-20.80963 Z M-16.6158038,-20.80963 C-17.5998748,-20.80963 -18.3976221,-20.0122809 -18.3976221,-19.0287009 L-18.3976221,-17.2477717 C-18.3976221,-16.2641917 -17.5998748,-15.4668425 -16.6158038,-15.4668425 L-9.48853078,-15.4668425 C-8.50445982,-15.4668425 -7.70671252,-16.2641917 -7.70671252,-17.2477717 L-7.70671252,-19.0287009 C-7.70671252,-20.0122809 -8.50445982,-20.80963 -9.48853078,-20.80963 L-16.6158038,-20.80963 Z M-2.36125773,-20.80963 C-3.34532869,-20.80963 -4.14307599,-20.0122809 -4.14307599,-19.0287009 L-4.14307599,-17.2477717 C-4.14307599,-16.2641917 -3.34532869,-15.4668425 -2.36125773,-15.4668425 L4.76601533,-15.4668425 C5.75008629,-15.4668425 6.54783359,-16.2641917 6.54783359,-17.2477717 L6.54783359,-19.0287009 C6.54783359,-20.0122809 5.75008629,-20.80963 4.76601533,-20.80963 L-2.36125773,-20.80963 Z M11.8932884,-20.80963 C10.9092174,-20.80963 10.1114701,-20.0122809 10.1114701,-19.0287009 L10.1114701,-17.2477717 C10.1114701,-16.2641917 10.9092174,-15.4668425 11.8932884,-15.4668425 L19.0205614,-15.4668425 C20.0046324,-15.4668425 20.8023797,-16.2641917 20.8023797,-17.2477717 L20.8023797,-19.0287009 C20.8023797,-20.0122809 20.0046324,-20.80963 19.0205614,-20.80963 L11.8932884,-20.80963 Z M25.613289,-20.80963 C24.629218,-20.80963 23.8314707,-20.0122809 23.8314707,-19.0287009 L23.8314707,-17.2477717 C23.8314707,-16.2641917 24.629218,-15.4668425 25.613289,-15.4668425 L32.7405621,-15.4668425 C33.724633,-15.4668425 34.5223803,-16.2641917 34.5223803,-17.2477717 L34.5223803,-19.0287009 C34.5223803,-20.0122809 33.724633,-20.80963 32.7405621,-20.80963 L25.613289,-20.80963 Z M39.8678351,-20.80963 C38.8837642,-20.80963 38.0860169,-20.0122809 38.0860169,-19.0287009 L38.0860169,-17.2477717 C38.0860169,-16.2641917 38.8837642,-15.4668425 39.8678351,-15.4668425 L46.9951082,-15.4668425 C47.9791791,-15.4668425 48.7769264,-16.2641917 48.7769264,-17.2477717 L48.7769264,-19.0287009 C48.7769264,-20.0122809 47.9791791,-20.80963 46.9951082,-20.80963 L39.8678351,-20.80963 Z M54.1223812,-20.80963 C53.1383103,-20.80963 52.340563,-20.0122809 52.340563,-19.0287009 L52.340563,-17.2477717 C52.340563,-16.2641917 53.1383103,-15.4668425 54.1223812,-15.4668425 L61.2496543,-15.4668425 C62.2337252,-15.4668425 63.0314725,-16.2641917 63.0314725,-17.2477717 L63.0314725,-19.0287009 C63.0314725,-20.0122809 62.2337252,-20.80963 61.2496543,-20.80963 L54.1223812,-20.80963 Z M68.3769273,-20.80963 C67.3928564,-20.80963 66.5951091,-20.0122809 66.5951091,-19.0287009 L66.5951091,-17.2477717 C66.5951091,-16.2641917 67.3928564,-15.4668425 68.3769273,-15.4668425 L75.5042004,-15.4668425 C76.4882714,-15.4668425 77.2860187,-16.2641917 77.2860187,-17.2477717 L77.2860187,-19.0287009 C77.2860187,-20.0122809 76.4882714,-20.80963 75.5042004,-20.80963 L68.3769273,-20.80963 Z M82.6314734,-20.80963 C81.6474019,-20.80963 80.8496552,-20.0122809 80.8496552,-19.0287009 L80.8496552,-17.2477717 C80.8496552,-16.2641917 81.6474019,-15.4668425 82.6314734,-15.4668425 L89.7587465,-15.4668425 C90.742818,-15.4668425 91.5405648,-16.2641917 91.5405648,-17.2477717 L91.5405648,-19.0287009 C91.5405648,-20.0122809 90.742818,-20.80963 89.7587465,-20.80963 L82.6314734,-20.80963 Z M96.8860195,-20.80963 C95.901948,-20.80963 95.1042013,-20.0122809 95.1042013,-19.0287009 L95.1042013,-17.2477717 C95.1042013,-16.2641917 95.901948,-15.4668425 96.8860195,-15.4668425 L104.013293,-15.4668425 C104.997364,-15.4668425 105.795111,-16.2641917 105.795111,-17.2477717 L105.795111,-19.0287009 C105.795111,-20.0122809 104.997364,-20.80963 104.013293,-20.80963 L96.8860195,-20.80963 Z M-73.6339883,-10.1240551 C-74.6180592,-10.1240551 -75.4158065,-9.32670582 -75.4158065,-8.34312589 L-75.4158065,-1.21940925 C-75.4158065,-0.235829324 -74.6180592,0.561519909 -73.6339883,0.561519909 L-66.5067152,0.561519909 C-65.5226443,0.561519909 -64.724897,-0.235829324 -64.724897,-1.21940925 L-64.724897,-8.34312589 C-64.724897,-9.32670582 -65.5226443,-10.1240551 -66.5067152,-10.1240551 L-73.6339883,-10.1240551 Z M-59.2012603,-10.1240551 C-60.1853313,-10.1240551 -60.9830786,-9.32670582 -60.9830786,-8.34312589 L-60.9830786,-1.21940925 C-60.9830786,-0.235829324 -60.1853313,0.561519909 -59.2012603,0.561519909 L-52.0739873,0.561519909 C-51.0899163,0.561519909 -50.292169,-0.235829324 -50.292169,-1.21940925 L-50.292169,-8.34312589 C-50.292169,-9.32670582 -51.0899163,-10.1240551 -52.0739873,-10.1240551 L-59.2012603,-10.1240551 Z M-44.7685324,-10.1240551 C-45.7526034,-10.1240551 -46.5503507,-9.32670582 -46.5503507,-8.34312589 L-46.5503507,-1.21940925 C-46.5503507,-0.235829324 -45.7526034,0.561519909 -44.7685324,0.561519909 L-37.6412593,0.561519909 C-36.6571884,0.561519909 -35.8594411,-0.235829324 -35.8594411,-1.21940925 L-35.8594411,-8.34312589 C-35.8594411,-9.32670582 -36.6571884,-10.1240551 -37.6412593,-10.1240551 L-44.7685324,-10.1240551 Z M-30.5139863,-10.1240551 C-31.4980573,-10.1240551 -32.2958046,-9.32670582 -32.2958046,-8.34312589 L-32.2958046,-1.21940925 C-32.2958046,-0.235829324 -31.4980573,0.561519909 -30.5139863,0.561519909 L-23.3867132,0.561519909 C-22.4026423,0.561519909 -21.604895,-0.235829324 -21.604895,-1.21940925 L-21.604895,-8.34312589 C-21.604895,-9.32670582 -22.4026423,-10.1240551 -23.3867132,-10.1240551 L-30.5139863,-10.1240551 Z M-16.0812584,-10.1240551 C-17.0653293,-10.1240551 -17.8630766,-9.32670582 -17.8630766,-8.34312589 L-17.8630766,-1.21940925 C-17.8630766,-0.235829324 -17.0653293,0.561519909 -16.0812584,0.561519909 L-8.9539853,0.561519909 C-7.96991434,0.561519909 -7.17216704,-0.235829324 -7.17216704,-1.21940925 L-7.17216704,-8.34312589 C-7.17216704,-9.32670582 -7.96991434,-10.1240551 -8.9539853,-10.1240551 L-16.0812584,-10.1240551 Z M-1.82671225,-10.1240551 C-2.81078322,-10.1240551 -3.60853051,-9.32670582 -3.60853051,-8.34312589 L-3.60853051,-1.21940925 C-3.60853051,-0.235829324 -2.81078322,0.561519909 -1.82671225,0.561519909 L5.3005608,0.561519909 C6.28463177,0.561519909 7.08237907,-0.235829324 7.08237907,-1.21940925 L7.08237907,-8.34312589 C7.08237907,-9.32670582 6.28463177,-10.1240551 5.3005608,-10.1240551 L-1.82671225,-10.1240551 Z M12.6060157,-10.1240551 C11.6219447,-10.1240551 10.8241974,-9.32670582 10.8241974,-8.34312589 L10.8241974,-1.21940925 C10.8241974,-0.235829324 11.6219447,0.561519909 12.6060157,0.561519909 L19.7332887,0.561519909 C20.7173597,0.561519909 21.515107,-0.235829324 21.515107,-1.21940925 L21.515107,-8.34312589 C21.515107,-9.32670582 20.7173597,-10.1240551 19.7332887,-10.1240551 L12.6060157,-10.1240551 Z M26.8605618,-10.1240551 C25.8764908,-10.1240551 25.0787435,-9.32670582 25.0787435,-8.34312589 L25.0787435,-1.21940925 C25.0787435,-0.235829324 25.8764908,0.561519909 26.8605618,0.561519909 L33.9878348,0.561519909 C34.9719058,0.561519909 35.7696531,-0.235829324 35.7696531,-1.21940925 L35.7696531,-8.34312589 C35.7696531,-9.32670582 34.9719058,-10.1240551 33.9878348,-10.1240551 L26.8605618,-10.1240551 Z M41.2932897,-10.1240551 C40.3092188,-10.1240551 39.5114715,-9.32670582 39.5114715,-8.34312589 L39.5114715,-1.21940925 C39.5114715,-0.235829324 40.3092188,0.561519909 41.2932897,0.561519909 L48.4205628,0.561519909 C49.4046337,0.561519909 50.202381,-0.235829324 50.202381,-1.21940925 L50.202381,-8.34312589 C50.202381,-9.32670582 49.4046337,-10.1240551 48.4205628,-10.1240551 L41.2932897,-10.1240551 Z M55.5478358,-10.1240551 C54.5637649,-10.1240551 53.7660176,-9.32670582 53.7660176,-8.34312589 L53.7660176,-1.21940925 C53.7660176,-0.235829324 54.5637649,0.561519909 55.5478358,0.561519909 L62.6751089,0.561519909 C63.6591799,0.561519909 64.4569272,-0.235829324 64.4569272,-1.21940925 L64.4569272,-8.34312589 C64.4569272,-9.32670582 63.6591799,-10.1240551 62.6751089,-10.1240551 L55.5478358,-10.1240551 Z M-87.8885344,4.12337823 C-88.8726054,4.12337823 -89.6703526,4.92072746 -89.6703526,5.90430739 L-89.6703526,13.028024 C-89.6703526,14.011604 -88.8726054,14.8089532 -87.8885344,14.8089532 L-71.85217,14.8089532 C-70.868099,14.8089532 -70.0703517,14.011604 -70.0703517,13.028024 L-70.0703517,5.90430739 C-70.0703517,4.92072746 -70.868099,4.12337823 -71.85217,4.12337823 L-87.8885344,4.12337823 Z M-65.4376243,4.12337823 C-66.4216952,4.12337823 -67.2194425,4.92072746 -67.2194425,5.90430739 L-67.2194425,13.028024 C-67.2194425,14.011604 -66.4216952,14.8089532 -65.4376243,14.8089532 L-58.3103512,14.8089532 C-57.3262802,14.8089532 -56.5285329,14.011604 -56.5285329,13.028024 L-56.5285329,5.90430739 C-56.5285329,4.92072746 -57.3262802,4.12337823 -58.3103512,4.12337823 L-65.4376243,4.12337823 Z M-51.8958055,4.12337823 C-52.8798764,4.12337823 -53.6776237,4.92072746 -53.6776237,5.90430739 L-53.6776237,13.028024 C-53.6776237,14.011604 -52.8798764,14.8089532 -51.8958055,14.8089532 L-44.7685324,14.8089532 C-43.7844614,14.8089532 -42.9867141,14.011604 -42.9867141,13.028024 L-42.9867141,5.90430739 C-42.9867141,4.92072746 -43.7844614,4.12337823 -44.7685324,4.12337823 L-51.8958055,4.12337823 Z M-38.3539867,4.12337823 C-39.3380576,4.12337823 -40.1358049,4.92072746 -40.1358049,5.90430739 L-40.1358049,13.028024 C-40.1358049,14.011604 -39.3380576,14.8089532 -38.3539867,14.8089532 L-31.2267136,14.8089532 C-30.2426426,14.8089532 -29.4448953,14.011604 -29.4448953,13.028024 L-29.4448953,5.90430739 C-29.4448953,4.92072746 -30.2426426,4.12337823 -31.2267136,4.12337823 L-38.3539867,4.12337823 Z M-24.8121678,4.12337823 C-25.7962388,4.12337823 -26.5939861,4.92072746 -26.5939861,5.90430739 L-26.5939861,13.028024 C-26.5939861,14.011604 -25.7962388,14.8089532 -24.8121678,14.8089532 L-17.6848948,14.8089532 C-16.7008238,14.8089532 -15.9030765,14.011604 -15.9030765,13.028024 L-15.9030765,5.90430739 C-15.9030765,4.92072746 -16.7008238,4.12337823 -17.6848948,4.12337823 L-24.8121678,4.12337823 Z M-11.270349,4.12337823 C-12.25442,4.12337823 -13.0521673,4.92072746 -13.0521673,5.90430739 L-13.0521673,13.028024 C-13.0521673,14.011604 -12.25442,14.8089532 -11.270349,14.8089532 L-4.14307599,14.8089532 C-3.15900503,14.8089532 -2.36125773,14.011604 -2.36125773,13.028024 L-2.36125773,5.90430739 C-2.36125773,4.92072746 -3.15900503,4.12337823 -4.14307599,4.12337823 L-11.270349,4.12337823 Z M2.27146976,4.12337823 C1.28739879,4.12337823 0.489651493,4.92072746 0.489651493,5.90430739 L0.489651493,13.028024 C0.489651493,14.011604 1.28739879,14.8089532 2.27146976,14.8089532 L9.39874281,14.8089532 C10.3828138,14.8089532 11.1805611,14.011604 11.1805611,13.028024 L11.1805611,5.90430739 C11.1805611,4.92072746 10.3828138,4.12337823 9.39874281,4.12337823 L2.27146976,4.12337823 Z M15.6351067,4.12337823 C14.6510358,4.12337823 13.8532885,4.92072746 13.8532885,5.90430739 L13.8532885,13.028024 C13.8532885,14.011604 14.6510358,14.8089532 15.6351067,14.8089532 L22.7623798,14.8089532 C23.7464508,14.8089532 24.5441981,14.011604 24.5441981,13.028024 L24.5441981,5.90430739 C24.5441981,4.92072746 23.7464508,4.12337823 22.7623798,4.12337823 L15.6351067,4.12337823 Z M29.1769255,4.12337823 C28.1928546,4.12337823 27.3951073,4.92072746 27.3951073,5.90430739 L27.3951073,13.028024 C27.3951073,14.011604 28.1928546,14.8089532 29.1769255,14.8089532 L36.3041986,14.8089532 C37.2882696,14.8089532 38.0860169,14.011604 38.0860169,13.028024 L38.0860169,5.90430739 C38.0860169,4.92072746 37.2882696,4.12337823 36.3041986,4.12337823 L29.1769255,4.12337823 Z M42.7187443,4.12337823 C41.7346734,4.12337823 40.9369261,4.92072746 40.9369261,5.90430739 L40.9369261,13.028024 C40.9369261,14.011604 41.7346734,14.8089532 42.7187443,14.8089532 L49.8460174,14.8089532 C50.8300884,14.8089532 51.6278357,14.011604 51.6278357,13.028024 L51.6278357,5.90430739 C51.6278357,4.92072746 50.8300884,4.12337823 49.8460174,4.12337823 L42.7187443,4.12337823 Z M56.2605631,4.12337823 C55.2764922,4.12337823 54.4787449,4.92072746 54.4787449,5.90430739 L54.4787449,13.028024 C54.4787449,14.011604 55.2764922,14.8089532 56.2605631,14.8089532 L63.3878362,14.8089532 C64.3719072,14.8089532 65.1696545,14.011604 65.1696545,13.028024 L65.1696545,5.90430739 C65.1696545,4.92072746 64.3719072,4.12337823 63.3878362,4.12337823 L56.2605631,4.12337823 Z M69.8023819,4.12337823 C68.818311,4.12337823 68.0205637,4.92072746 68.0205637,5.90430739 L68.0205637,13.028024 C68.0205637,14.011604 68.818311,14.8089532 69.8023819,14.8089532 L76.929655,14.8089532 C77.913726,14.8089532 78.7114733,14.011604 78.7114733,13.028024 L78.7114733,5.90430739 C78.7114733,4.92072746 77.913726,4.12337823 76.929655,4.12337823 L69.8023819,4.12337823 Z M83.3442007,4.12337823 C82.3601292,4.12337823 81.5623825,4.92072746 81.5623825,5.90430739 L81.5623825,13.028024 C81.5623825,14.011604 82.3601292,14.8089532 83.3442007,14.8089532 L90.4714738,14.8089532 C91.4555453,14.8089532 92.2532921,14.011604 92.2532921,13.028024 L92.2532921,5.90430739 C92.2532921,4.92072746 91.4555453,4.12337823 90.4714738,4.12337823 L83.3442007,4.12337823 Z M96.8860195,4.12337823 C95.901948,4.12337823 95.1042013,4.92072746 95.1042013,5.90430739 L95.1042013,13.028024 C95.1042013,14.011604 95.901948,14.8089532 96.8860195,14.8089532 L104.013293,14.8089532 C104.997364,14.8089532 105.795111,14.011604 105.795111,13.028024 L105.795111,5.90430739 C105.795111,4.92072746 104.997364,4.12337823 104.013293,4.12337823 L96.8860195,4.12337823 Z M-87.8885344,18.3708115 C-88.8726054,18.3708115 -89.6703526,19.1681607 -89.6703526,20.1517407 L-89.6703526,27.2754573 C-89.6703526,28.2590372 -88.8726054,29.0563865 -87.8885344,29.0563865 L-64.5467151,29.0563865 C-63.5626442,29.0563865 -62.7648969,28.2590372 -62.7648969,27.2754573 L-62.7648969,20.1517407 C-62.7648969,19.1681607 -63.5626442,18.3708115 -64.5467151,18.3708115 L-87.8885344,18.3708115 Z M-57.7758057,18.3708115 C-58.7598767,18.3708115 -59.557624,19.1681607 -59.557624,20.1517407 L-59.557624,27.2754573 C-59.557624,28.2590372 -58.7598767,29.0563865 -57.7758057,29.0563865 L-50.6485327,29.0563865 C-49.6644617,29.0563865 -48.8667144,28.2590372 -48.8667144,27.2754573 L-48.8667144,20.1517407 C-48.8667144,19.1681607 -49.6644617,18.3708115 -50.6485327,18.3708115 L-57.7758057,18.3708115 Z M-44.0558051,18.3708115 C-45.0398761,18.3708115 -45.8376234,19.1681607 -45.8376234,20.1517407 L-45.8376234,27.2754573 C-45.8376234,28.2590372 -45.0398761,29.0563865 -44.0558051,29.0563865 L-36.928532,29.0563865 C-35.9444611,29.0563865 -35.1467138,28.2590372 -35.1467138,27.2754573 L-35.1467138,20.1517407 C-35.1467138,19.1681607 -35.9444611,18.3708115 -36.928532,18.3708115 L-44.0558051,18.3708115 Z M-30.1576226,18.3708115 C-31.1416936,18.3708115 -31.9394409,19.1681607 -31.9394409,20.1517407 L-31.9394409,27.2754573 C-31.9394409,28.2590372 -31.1416936,29.0563865 -30.1576226,29.0563865 L-23.0303496,29.0563865 C-22.0462786,29.0563865 -21.2485313,28.2590372 -21.2485313,27.2754573 L-21.2485313,20.1517407 C-21.2485313,19.1681607 -22.0462786,18.3708115 -23.0303496,18.3708115 L-30.1576226,18.3708115 Z M-16.2594402,18.3708115 C-17.2435111,18.3708115 -18.0412584,19.1681607 -18.0412584,20.1517407 L-18.0412584,27.2754573 C-18.0412584,28.2590372 -17.2435111,29.0563865 -16.2594402,29.0563865 L-9.13216713,29.0563865 C-8.14809617,29.0563865 -7.35034887,28.2590372 -7.35034887,27.2754573 L-7.35034887,20.1517407 C-7.35034887,19.1681607 -8.14809617,18.3708115 -9.13216713,18.3708115 L-16.2594402,18.3708115 Z M-2.36125773,18.3708115 C-3.34532869,18.3708115 -4.14307599,19.1681607 -4.14307599,20.1517407 L-4.14307599,27.2754573 C-4.14307599,28.2590372 -3.34532869,29.0563865 -2.36125773,29.0563865 L4.76601533,29.0563865 C5.75008629,29.0563865 6.54783359,28.2590372 6.54783359,27.2754573 L6.54783359,20.1517407 C6.54783359,19.1681607 5.75008629,18.3708115 4.76601533,18.3708115 L-2.36125773,18.3708115 Z M11.3587429,18.3708115 C10.3746719,18.3708115 9.57692464,19.1681607 9.57692464,20.1517407 L9.57692464,27.2754573 C9.57692464,28.2590372 10.3746719,29.0563865 11.3587429,29.0563865 L18.486016,29.0563865 C19.4700869,29.0563865 20.2678342,28.2590372 20.2678342,27.2754573 L20.2678342,20.1517407 C20.2678342,19.1681607 19.4700869,18.3708115 18.486016,18.3708115 L11.3587429,18.3708115 Z M25.2569254,18.3708115 C24.2728544,18.3708115 23.4751071,19.1681607 23.4751071,20.1517407 L23.4751071,27.2754573 C23.4751071,28.2590372 24.2728544,29.0563865 25.2569254,29.0563865 L32.3841984,29.0563865 C33.3682694,29.0563865 34.1660167,28.2590372 34.1660167,27.2754573 L34.1660167,20.1517407 C34.1660167,19.1681607 33.3682694,18.3708115 32.3841984,18.3708115 L25.2569254,18.3708115 Z M39.1551078,18.3708115 C38.1710368,18.3708115 37.3732895,19.1681607 37.3732895,20.1517407 L37.3732895,27.2754573 C37.3732895,28.2590372 38.1710368,29.0563865 39.1551078,29.0563865 L46.2823809,29.0563865 C47.2664518,29.0563865 48.0641991,28.2590372 48.0641991,27.2754573 L48.0641991,20.1517407 C48.0641991,19.1681607 47.2664518,18.3708115 46.2823809,18.3708115 L39.1551078,18.3708115 Z M53.0532903,18.3708115 C52.0692193,18.3708115 51.271472,19.1681607 51.271472,20.1517407 L51.271472,27.2754573 C51.271472,28.2590372 52.0692193,29.0563865 53.0532903,29.0563865 L60.1805633,29.0563865 C61.1646343,29.0563865 61.9623816,28.2590372 61.9623816,27.2754573 L61.9623816,20.1517407 C61.9623816,19.1681607 61.1646343,18.3708115 60.1805633,18.3708115 L53.0532903,18.3708115 Z M66.7732909,18.3708115 C65.7892199,18.3708115 64.9914726,19.1681607 64.9914726,20.1517407 L64.9914726,27.2754573 C64.9914726,28.2590372 65.7892199,29.0563865 66.7732909,29.0563865 L73.9005639,29.0563865 C74.8846349,29.0563865 75.6823822,28.2590372 75.6823822,27.2754573 L75.6823822,20.1517407 C75.6823822,19.1681607 74.8846349,18.3708115 73.9005639,18.3708115 L66.7732909,18.3708115 Z M80.6714734,18.3708115 C79.6874024,18.3708115 78.8896551,19.1681607 78.8896551,20.1517407 L78.8896551,27.2754573 C78.8896551,28.2590372 79.6874024,29.0563865 80.6714734,29.0563865 L104.013293,29.0563865 C104.997364,29.0563865 105.795111,28.2590372 105.795111,27.2754573 L105.795111,20.1517407 C105.795111,19.1681607 104.997364,18.3708115 104.013293,18.3708115 L80.6714734,18.3708115 Z M-87.8885344,32.6182448 C-88.8726054,32.6182448 -89.6703526,33.415594 -89.6703526,34.399174 L-89.6703526,41.5228906 C-89.6703526,42.5064705 -88.8726054,43.3038198 -87.8885344,43.3038198 L-57.4194421,43.3038198 C-56.4353711,43.3038198 -55.6376238,42.5064705 -55.6376238,41.5228906 L-55.6376238,34.399174 C-55.6376238,33.415594 -56.4353711,32.6182448 -57.4194421,32.6182448 L-87.8885344,32.6182448 Z M-33.899441,48.6466072 C-34.883512,48.6466072 -35.6812593,49.4439565 -35.6812593,50.4275364 L-35.6812593,57.551253 C-35.6812593,58.534833 -34.883512,59.3321822 -33.899441,59.3321822 L36.3041986,59.3321822 C37.2882696,59.3321822 38.0860169,58.534833 38.0860169,57.551253 L38.0860169,50.4275364 C38.0860169,49.4439565 37.2882696,48.6466072 36.3041986,48.6466072 L-33.899441,48.6466072 Z M-39.7794413,48.6466072 L-51.0048963,48.6466072 C-51.9889673,48.6466072 -52.7867146,49.4439565 -52.7867146,50.4275364 L-52.7867146,57.551253 C-52.7867146,58.534833 -51.9889673,59.3321822 -51.0048963,59.3321822 L-39.7794413,59.3321822 C-38.7953703,59.3321822 -37.997623,58.534833 -37.997623,57.551253 L-37.997623,50.4275364 C-37.997623,49.4439565 -38.7953703,48.6466072 -39.7794413,48.6466072 Z M53.2314721,48.6466072 L42.006017,48.6466072 C41.0219461,48.6466072 40.2241988,49.4439565 40.2241988,50.4275364 L40.2241988,57.551253 C40.2241988,58.534833 41.0219461,59.3321822 42.006017,59.3321822 L53.2314721,59.3321822 C54.2155431,59.3321822 55.0132904,58.534833 55.0132904,57.551253 L55.0132904,50.4275364 C55.0132904,49.4439565 54.2155431,48.6466072 53.2314721,48.6466072 Z M-82.5430796,48.6466072 L-87.8885344,48.6466072 C-88.8726054,48.6466072 -89.6703526,49.4439565 -89.6703526,50.4275364 L-89.6703526,57.551253 C-89.6703526,58.534833 -88.8726054,59.3321822 -87.8885344,59.3321822 L-82.5430796,59.3321822 C-81.5590085,59.3321822 -80.7612613,58.534833 -80.7612613,57.551253 L-80.7612613,50.4275364 C-80.7612613,49.4439565 -81.5590085,48.6466072 -82.5430796,48.6466072 Z M-69.7139881,48.6466072 L-76.8412611,48.6466072 C-77.8253321,48.6466072 -78.6230794,49.4439565 -78.6230794,50.4275364 L-78.6230794,57.551253 C-78.6230794,58.534833 -77.8253321,59.3321822 -76.8412611,59.3321822 L-69.7139881,59.3321822 C-68.7299171,59.3321822 -67.9321698,58.534833 -67.9321698,57.551253 L-67.9321698,50.4275364 C-67.9321698,49.4439565 -68.7299171,48.6466072 -69.7139881,48.6466072 Z M-56.7067148,48.6466072 L-63.8339878,48.6466072 C-64.8180588,48.6466072 -65.6158061,49.4439565 -65.6158061,50.4275364 L-65.6158061,57.551253 C-65.6158061,58.534833 -64.8180588,59.3321822 -63.8339878,59.3321822 L-56.7067148,59.3321822 C-55.7226438,59.3321822 -54.9248965,58.534833 -54.9248965,57.551253 L-54.9248965,50.4275364 C-54.9248965,49.4439565 -55.7226438,48.6466072 -56.7067148,48.6466072 Z M66.2387454,48.6466072 L59.1114724,48.6466072 C58.1274014,48.6466072 57.3296541,49.4439565 57.3296541,50.4275364 L57.3296541,57.551253 C57.3296541,58.534833 58.1274014,59.3321822 59.1114724,59.3321822 L66.2387454,59.3321822 C67.2228164,59.3321822 68.0205637,58.534833 68.0205637,57.551253 L68.0205637,50.4275364 C68.0205637,49.4439565 67.2228164,48.6466072 66.2387454,48.6466072 Z M91.5405648,55.0579522 L84.4132917,55.0579522 C83.4292202,55.0579522 82.6314734,55.8553015 82.6314734,56.8388814 L82.6314734,57.551253 C82.6314734,58.534833 83.4292202,59.3321822 84.4132917,59.3321822 L91.5405648,59.3321822 C92.5246363,59.3321822 93.322383,58.534833 93.322383,57.551253 L93.322383,56.8388814 C93.322383,55.8553015 92.5246363,55.0579522 91.5405648,55.0579522 Z M91.5405648,48.6466072 L84.4132917,48.6466072 C83.4292202,48.6466072 82.6314734,49.4439565 82.6314734,50.4275364 L82.6314734,51.1399081 C82.6314734,52.123488 83.4292202,52.9208372 84.4132917,52.9208372 L91.5405648,52.9208372 C92.5246363,52.9208372 93.322383,52.123488 93.322383,51.1399081 L93.322383,50.4275364 C93.322383,49.4439565 92.5246363,48.6466072 91.5405648,48.6466072 Z M79.0678369,55.0579522 L71.9405639,55.0579522 C70.9564929,55.0579522 70.1587456,55.8553015 70.1587456,56.8388814 L70.1587456,57.551253 C70.1587456,58.534833 70.9564929,59.3321822 71.9405639,59.3321822 L79.0678369,59.3321822 C80.0519079,59.3321822 80.8496552,58.534833 80.8496552,57.551253 L80.8496552,56.8388814 C80.8496552,55.8553015 80.0519079,55.0579522 79.0678369,55.0579522 Z M104.013293,55.0579522 L96.8860195,55.0579522 C95.901948,55.0579522 95.1042013,55.8553015 95.1042013,56.8388814 L95.1042013,57.551253 C95.1042013,58.534833 95.901948,59.3321822 96.8860195,59.3321822 L104.013293,59.3321822 C104.997364,59.3321822 105.795111,58.534833 105.795111,57.551253 L105.795111,56.8388814 C105.795111,55.8553015 104.997364,55.0579522 104.013293,55.0579522 Z M-50.6485327,32.6182448 C-51.6326036,32.6182448 -52.4303509,33.415594 -52.4303509,34.399174 L-52.4303509,41.5228906 C-52.4303509,42.5064705 -51.6326036,43.3038198 -50.6485327,43.3038198 L-43.5212596,43.3038198 C-42.5371887,43.3038198 -41.7394414,42.5064705 -41.7394414,41.5228906 L-41.7394414,34.399174 C-41.7394414,33.415594 -42.5371887,32.6182448 -43.5212596,32.6182448 L-50.6485327,32.6182448 Z M-36.928532,32.6182448 C-37.912603,32.6182448 -38.7103503,33.415594 -38.7103503,34.399174 L-38.7103503,41.5228906 C-38.7103503,42.5064705 -37.912603,43.3038198 -36.928532,43.3038198 L-29.801259,43.3038198 C-28.817188,43.3038198 -28.0194407,42.5064705 -28.0194407,41.5228906 L-28.0194407,34.399174 C-28.0194407,33.415594 -28.817188,32.6182448 -29.801259,32.6182448 L-36.928532,32.6182448 Z M-23.0303496,32.6182448 C-24.0144206,32.6182448 -24.8121678,33.415594 -24.8121678,34.399174 L-24.8121678,41.5228906 C-24.8121678,42.5064705 -24.0144206,43.3038198 -23.0303496,43.3038198 L-15.9030765,43.3038198 C-14.9190056,43.3038198 -14.1212583,42.5064705 -14.1212583,41.5228906 L-14.1212583,34.399174 C-14.1212583,33.415594 -14.9190056,32.6182448 -15.9030765,32.6182448 L-23.0303496,32.6182448 Z M-9.31034896,32.6182448 C-10.2944199,32.6182448 -11.0921672,33.415594 -11.0921672,34.399174 L-11.0921672,41.5228906 C-11.0921672,42.5064705 -10.2944199,43.3038198 -9.31034896,43.3038198 L-2.1830759,43.3038198 C-1.19900494,43.3038198 -0.401257639,42.5064705 -0.401257639,41.5228906 L-0.401257639,34.399174 C-0.401257639,33.415594 -1.19900494,32.6182448 -2.1830759,32.6182448 L-9.31034896,32.6182448 Z M4.5878335,32.6182448 C3.60376253,32.6182448 2.80601524,33.415594 2.80601524,34.399174 L2.80601524,41.5228906 C2.80601524,42.5064705 3.60376253,43.3038198 4.5878335,43.3038198 L11.7151066,43.3038198 C12.6991775,43.3038198 13.4969248,42.5064705 13.4969248,41.5228906 L13.4969248,34.399174 C13.4969248,33.415594 12.6991775,32.6182448 11.7151066,32.6182448 L4.5878335,32.6182448 Z M18.3078341,32.6182448 C17.3237632,32.6182448 16.5260159,33.415594 16.5260159,34.399174 L16.5260159,41.5228906 C16.5260159,42.5064705 17.3237632,43.3038198 18.3078341,43.3038198 L25.4351072,43.3038198 C26.4191781,43.3038198 27.2169254,42.5064705 27.2169254,41.5228906 L27.2169254,34.399174 C27.2169254,33.415594 26.4191781,32.6182448 25.4351072,32.6182448 L18.3078341,32.6182448 Z M32.2060166,32.6182448 C31.2219456,32.6182448 30.4241983,33.415594 30.4241983,34.399174 L30.4241983,41.5228906 C30.4241983,42.5064705 31.2219456,43.3038198 32.2060166,43.3038198 L39.3332896,43.3038198 C40.3173606,43.3038198 41.1151079,42.5064705 41.1151079,41.5228906 L41.1151079,34.399174 C41.1151079,33.415594 40.3173606,32.6182448 39.3332896,32.6182448 L32.2060166,32.6182448 Z M45.9260172,32.6182448 C44.9419462,32.6182448 44.1441989,33.415594 44.1441989,34.399174 L44.1441989,41.5228906 C44.1441989,42.5064705 44.9419462,43.3038198 45.9260172,43.3038198 L53.0532903,43.3038198 C54.0373612,43.3038198 54.8351085,42.5064705 54.8351085,41.5228906 L54.8351085,34.399174 C54.8351085,33.415594 54.0373612,32.6182448 53.0532903,32.6182448 L45.9260172,32.6182448 Z M59.8241997,32.6182448 C58.8401287,32.6182448 58.0423814,33.415594 58.0423814,34.399174 L58.0423814,41.5228906 C58.0423814,42.5064705 58.8401287,43.3038198 59.8241997,43.3038198 L66.9514727,43.3038198 C67.9355437,43.3038198 68.733291,42.5064705 68.733291,41.5228906 L68.733291,34.399174 C68.733291,33.415594 67.9355437,32.6182448 66.9514727,32.6182448 L59.8241997,32.6182448 Z M73.5442003,32.6182448 C72.5601293,32.6182448 71.762382,33.415594 71.762382,34.399174 L71.762382,41.5228906 C71.762382,42.5064705 72.5601293,43.3038198 73.5442003,43.3038198 L104.013293,43.3038198 C104.997364,43.3038198 105.795111,42.5064705 105.795111,41.5228906 L105.795111,34.399174 C105.795111,33.415594 104.997364,32.6182448 104.013293,32.6182448 L73.5442003,32.6182448 Z M84.2351099,-10.1240551 C83.2510384,-10.1240551 82.4532916,-9.32670582 82.4532916,-8.34312589 L82.4532916,-1.21940925 C82.4532916,-0.235829324 83.2510384,0.561519909 84.2351099,0.561519909 L104.013293,0.561519909 C104.997364,0.561519909 105.795111,-0.235829324 105.795111,-1.21940925 L105.795111,-8.34312589 C105.795111,-9.32670582 104.997364,-10.1240551 104.013293,-10.1240551 L84.2351099,-10.1240551 Z" id="Combined-Shape" fill="#EE164E" fill-rule="nonzero" transform="translate(8.062379, 19.261276) rotate(34.000000) translate(-8.062379, -19.261276) "></path>
          <path d="M321.871438,46.5341034 C320.887367,46.5341034 320.089619,47.3314526 320.089619,48.3150325 L320.089619,55.4387492 C320.089619,56.4223291 320.887367,57.2196783 321.871438,57.2196783 L328.998711,57.2196783 C329.982782,57.2196783 330.780529,56.4223291 330.780529,55.4387492 L330.780529,48.3150325 C330.780529,47.3314526 329.982782,46.5341034 328.998711,46.5341034 L321.871438,46.5341034 Z M164.00234,46.5341034 C163.018269,46.5341034 162.220521,47.3314526 162.220521,48.3150325 L162.220521,55.4387492 C162.220521,56.4223291 163.018269,57.2196783 164.00234,57.2196783 L171.129613,57.2196783 C172.113684,57.2196783 172.911431,56.4223291 172.911431,55.4387492 L172.911431,48.3150325 C172.911431,47.3314526 172.113684,46.5341034 171.129613,46.5341034 L164.00234,46.5341034 Z M159.547794,28.7248118 L360.358712,28.7248118 C363.310925,28.7248118 365.704167,31.1168592 365.704167,34.0675993 L365.704167,117.77127 C365.704167,120.72201 363.310925,123.114057 360.358712,123.114057 L159.547794,123.114057 C156.595581,123.114057 154.202339,120.72201 154.202339,117.77127 L154.202339,34.0675993 C154.202339,31.1168592 156.595581,28.7248118 159.547794,28.7248118 Z M164.00234,35.8485284 C163.018269,35.8485284 162.220521,36.6458776 162.220521,37.6294576 L162.220521,39.4103867 C162.220521,40.3939668 163.018269,41.1913159 164.00234,41.1913159 L171.129613,41.1913159 C172.113684,41.1913159 172.911431,40.3939668 172.911431,39.4103867 L172.911431,37.6294576 C172.911431,36.6458776 172.113684,35.8485284 171.129613,35.8485284 L164.00234,35.8485284 Z M178.256886,35.8485284 C177.272815,35.8485284 176.475067,36.6458776 176.475067,37.6294576 L176.475067,39.4103867 C176.475067,40.3939668 177.272815,41.1913159 178.256886,41.1913159 L185.384159,41.1913159 C186.36823,41.1913159 187.165977,40.3939668 187.165977,39.4103867 L187.165977,37.6294576 C187.165977,36.6458776 186.36823,35.8485284 185.384159,35.8485284 L178.256886,35.8485284 Z M192.511432,35.8485284 C191.527361,35.8485284 190.729614,36.6458776 190.729614,37.6294576 L190.729614,39.4103867 C190.729614,40.3939668 191.527361,41.1913159 192.511432,41.1913159 L199.638705,41.1913159 C200.622776,41.1913159 201.420523,40.3939668 201.420523,39.4103867 L201.420523,37.6294576 C201.420523,36.6458776 200.622776,35.8485284 199.638705,35.8485284 L192.511432,35.8485284 Z M206.765978,35.8485284 C205.781907,35.8485284 204.98416,36.6458776 204.98416,37.6294576 L204.98416,39.4103867 C204.98416,40.3939668 205.781907,41.1913159 206.765978,41.1913159 L213.893251,41.1913159 C214.877322,41.1913159 215.675069,40.3939668 215.675069,39.4103867 L215.675069,37.6294576 C215.675069,36.6458776 214.877322,35.8485284 213.893251,35.8485284 L206.765978,35.8485284 Z M221.020524,35.8485284 C220.036453,35.8485284 219.238706,36.6458776 219.238706,37.6294576 L219.238706,39.4103867 C219.238706,40.3939668 220.036453,41.1913159 221.020524,41.1913159 L228.147797,41.1913159 C229.131868,41.1913159 229.929615,40.3939668 229.929615,39.4103867 L229.929615,37.6294576 C229.929615,36.6458776 229.131868,35.8485284 228.147797,35.8485284 L221.020524,35.8485284 Z M235.27507,35.8485284 C234.290999,35.8485284 233.493252,36.6458776 233.493252,37.6294576 L233.493252,39.4103867 C233.493252,40.3939668 234.290999,41.1913159 235.27507,41.1913159 L242.402343,41.1913159 C243.386414,41.1913159 244.184161,40.3939668 244.184161,39.4103867 L244.184161,37.6294576 C244.184161,36.6458776 243.386414,35.8485284 242.402343,35.8485284 L235.27507,35.8485284 Z M249.529616,35.8485284 C248.545545,35.8485284 247.747798,36.6458776 247.747798,37.6294576 L247.747798,39.4103867 C247.747798,40.3939668 248.545545,41.1913159 249.529616,41.1913159 L256.656889,41.1913159 C257.64096,41.1913159 258.438708,40.3939668 258.438708,39.4103867 L258.438708,37.6294576 C258.438708,36.6458776 257.64096,35.8485284 256.656889,35.8485284 L249.529616,35.8485284 Z M263.784162,35.8485284 C262.800091,35.8485284 262.002344,36.6458776 262.002344,37.6294576 L262.002344,39.4103867 C262.002344,40.3939668 262.800091,41.1913159 263.784162,41.1913159 L270.911435,41.1913159 C271.895506,41.1913159 272.693254,40.3939668 272.693254,39.4103867 L272.693254,37.6294576 C272.693254,36.6458776 271.895506,35.8485284 270.911435,35.8485284 L263.784162,35.8485284 Z M277.504163,35.8485284 C276.520092,35.8485284 275.722345,36.6458776 275.722345,37.6294576 L275.722345,39.4103867 C275.722345,40.3939668 276.520092,41.1913159 277.504163,41.1913159 L284.631436,41.1913159 C285.615507,41.1913159 286.413254,40.3939668 286.413254,39.4103867 L286.413254,37.6294576 C286.413254,36.6458776 285.615507,35.8485284 284.631436,35.8485284 L277.504163,35.8485284 Z M291.758709,35.8485284 C290.774638,35.8485284 289.976891,36.6458776 289.976891,37.6294576 L289.976891,39.4103867 C289.976891,40.3939668 290.774638,41.1913159 291.758709,41.1913159 L298.885982,41.1913159 C299.870053,41.1913159 300.6678,40.3939668 300.6678,39.4103867 L300.6678,37.6294576 C300.6678,36.6458776 299.870053,35.8485284 298.885982,35.8485284 L291.758709,35.8485284 Z M306.013255,35.8485284 C305.029184,35.8485284 304.231437,36.6458776 304.231437,37.6294576 L304.231437,39.4103867 C304.231437,40.3939668 305.029184,41.1913159 306.013255,41.1913159 L313.140528,41.1913159 C314.124599,41.1913159 314.922347,40.3939668 314.922347,39.4103867 L314.922347,37.6294576 C314.922347,36.6458776 314.124599,35.8485284 313.140528,35.8485284 L306.013255,35.8485284 Z M320.267801,35.8485284 C319.28373,35.8485284 318.485983,36.6458776 318.485983,37.6294576 L318.485983,39.4103867 C318.485983,40.3939668 319.28373,41.1913159 320.267801,41.1913159 L327.395074,41.1913159 C328.379145,41.1913159 329.176893,40.3939668 329.176893,39.4103867 L329.176893,37.6294576 C329.176893,36.6458776 328.379145,35.8485284 327.395074,35.8485284 L320.267801,35.8485284 Z M334.522347,35.8485284 C333.538276,35.8485284 332.740529,36.6458776 332.740529,37.6294576 L332.740529,39.4103867 C332.740529,40.3939668 333.538276,41.1913159 334.522347,41.1913159 L341.64962,41.1913159 C342.633692,41.1913159 343.431439,40.3939668 343.431439,39.4103867 L343.431439,37.6294576 C343.431439,36.6458776 342.633692,35.8485284 341.64962,35.8485284 L334.522347,35.8485284 Z M348.776894,35.8485284 C347.792822,35.8485284 346.995075,36.6458776 346.995075,37.6294576 L346.995075,39.4103867 C346.995075,40.3939668 347.792822,41.1913159 348.776894,41.1913159 L355.904167,41.1913159 C356.888238,41.1913159 357.685985,40.3939668 357.685985,39.4103867 L357.685985,37.6294576 C357.685985,36.6458776 356.888238,35.8485284 355.904167,35.8485284 L348.776894,35.8485284 Z M178.256886,46.5341034 C177.272815,46.5341034 176.475067,47.3314526 176.475067,48.3150325 L176.475067,55.4387492 C176.475067,56.4223291 177.272815,57.2196783 178.256886,57.2196783 L185.384159,57.2196783 C186.36823,57.2196783 187.165977,56.4223291 187.165977,55.4387492 L187.165977,48.3150325 C187.165977,47.3314526 186.36823,46.5341034 185.384159,46.5341034 L178.256886,46.5341034 Z M192.689614,46.5341034 C191.705543,46.5341034 190.907795,47.3314526 190.907795,48.3150325 L190.907795,55.4387492 C190.907795,56.4223291 191.705543,57.2196783 192.689614,57.2196783 L199.816887,57.2196783 C200.800958,57.2196783 201.598705,56.4223291 201.598705,55.4387492 L201.598705,48.3150325 C201.598705,47.3314526 200.800958,46.5341034 199.816887,46.5341034 L192.689614,46.5341034 Z M207.122342,46.5341034 C206.138271,46.5341034 205.340523,47.3314526 205.340523,48.3150325 L205.340523,55.4387492 C205.340523,56.4223291 206.138271,57.2196783 207.122342,57.2196783 L214.249615,57.2196783 C215.233686,57.2196783 216.031433,56.4223291 216.031433,55.4387492 L216.031433,48.3150325 C216.031433,47.3314526 215.233686,46.5341034 214.249615,46.5341034 L207.122342,46.5341034 Z M221.376888,46.5341034 C220.392817,46.5341034 219.595069,47.3314526 219.595069,48.3150325 L219.595069,55.4387492 C219.595069,56.4223291 220.392817,57.2196783 221.376888,57.2196783 L228.504161,57.2196783 C229.488232,57.2196783 230.285979,56.4223291 230.285979,55.4387492 L230.285979,48.3150325 C230.285979,47.3314526 229.488232,46.5341034 228.504161,46.5341034 L221.376888,46.5341034 Z M235.809616,46.5341034 C234.825545,46.5341034 234.027797,47.3314526 234.027797,48.3150325 L234.027797,55.4387492 C234.027797,56.4223291 234.825545,57.2196783 235.809616,57.2196783 L242.936889,57.2196783 C243.92096,57.2196783 244.718707,56.4223291 244.718707,55.4387492 L244.718707,48.3150325 C244.718707,47.3314526 243.92096,46.5341034 242.936889,46.5341034 L235.809616,46.5341034 Z M250.064162,46.5341034 C249.080091,46.5341034 248.282343,47.3314526 248.282343,48.3150325 L248.282343,55.4387492 C248.282343,56.4223291 249.080091,57.2196783 250.064162,57.2196783 L257.191435,57.2196783 C258.175506,57.2196783 258.973253,56.4223291 258.973253,55.4387492 L258.973253,48.3150325 C258.973253,47.3314526 258.175506,46.5341034 257.191435,46.5341034 L250.064162,46.5341034 Z M264.49689,46.5341034 C263.512819,46.5341034 262.715071,47.3314526 262.715071,48.3150325 L262.715071,55.4387492 C262.715071,56.4223291 263.512819,57.2196783 264.49689,57.2196783 L271.624163,57.2196783 C272.608234,57.2196783 273.405981,56.4223291 273.405981,55.4387492 L273.405981,48.3150325 C273.405981,47.3314526 272.608234,46.5341034 271.624163,46.5341034 L264.49689,46.5341034 Z M278.751436,46.5341034 C277.767365,46.5341034 276.969618,47.3314526 276.969618,48.3150325 L276.969618,55.4387492 C276.969618,56.4223291 277.767365,57.2196783 278.751436,57.2196783 L285.878709,57.2196783 C286.86278,57.2196783 287.660527,56.4223291 287.660527,55.4387492 L287.660527,48.3150325 C287.660527,47.3314526 286.86278,46.5341034 285.878709,46.5341034 L278.751436,46.5341034 Z M293.184164,46.5341034 C292.200093,46.5341034 291.402345,47.3314526 291.402345,48.3150325 L291.402345,55.4387492 C291.402345,56.4223291 292.200093,57.2196783 293.184164,57.2196783 L300.311437,57.2196783 C301.295508,57.2196783 302.093255,56.4223291 302.093255,55.4387492 L302.093255,48.3150325 C302.093255,47.3314526 301.295508,46.5341034 300.311437,46.5341034 L293.184164,46.5341034 Z M307.43871,46.5341034 C306.454639,46.5341034 305.656892,47.3314526 305.656892,48.3150325 L305.656892,55.4387492 C305.656892,56.4223291 306.454639,57.2196783 307.43871,57.2196783 L314.565983,57.2196783 C315.550054,57.2196783 316.347801,56.4223291 316.347801,55.4387492 L316.347801,48.3150325 C316.347801,47.3314526 315.550054,46.5341034 314.565983,46.5341034 L307.43871,46.5341034 Z M164.00234,60.7815367 C163.018269,60.7815367 162.220521,61.5788859 162.220521,62.5624658 L162.220521,69.6861825 C162.220521,70.6697624 163.018269,71.4671116 164.00234,71.4671116 L180.038704,71.4671116 C181.022775,71.4671116 181.820522,70.6697624 181.820522,69.6861825 L181.820522,62.5624658 C181.820522,61.5788859 181.022775,60.7815367 180.038704,60.7815367 L164.00234,60.7815367 Z M186.45325,60.7815367 C185.469179,60.7815367 184.671431,61.5788859 184.671431,62.5624658 L184.671431,69.6861825 C184.671431,70.6697624 185.469179,71.4671116 186.45325,71.4671116 L193.580523,71.4671116 C194.564594,71.4671116 195.362341,70.6697624 195.362341,69.6861825 L195.362341,62.5624658 C195.362341,61.5788859 194.564594,60.7815367 193.580523,60.7815367 L186.45325,60.7815367 Z M199.995069,60.7815367 C199.010998,60.7815367 198.21325,61.5788859 198.21325,62.5624658 L198.21325,69.6861825 C198.21325,70.6697624 199.010998,71.4671116 199.995069,71.4671116 L207.122342,71.4671116 C208.106413,71.4671116 208.90416,70.6697624 208.90416,69.6861825 L208.90416,62.5624658 C208.90416,61.5788859 208.106413,60.7815367 207.122342,60.7815367 L199.995069,60.7815367 Z M213.536887,60.7815367 C212.552816,60.7815367 211.755069,61.5788859 211.755069,62.5624658 L211.755069,69.6861825 C211.755069,70.6697624 212.552816,71.4671116 213.536887,71.4671116 L220.66416,71.4671116 C221.648231,71.4671116 222.445979,70.6697624 222.445979,69.6861825 L222.445979,62.5624658 C222.445979,61.5788859 221.648231,60.7815367 220.66416,60.7815367 L213.536887,60.7815367 Z M227.078706,60.7815367 C226.094635,60.7815367 225.296888,61.5788859 225.296888,62.5624658 L225.296888,69.6861825 C225.296888,70.6697624 226.094635,71.4671116 227.078706,71.4671116 L234.205979,71.4671116 C235.19005,71.4671116 235.987797,70.6697624 235.987797,69.6861825 L235.987797,62.5624658 C235.987797,61.5788859 235.19005,60.7815367 234.205979,60.7815367 L227.078706,60.7815367 Z M240.620525,60.7815367 C239.636454,60.7815367 238.838707,61.5788859 238.838707,62.5624658 L238.838707,69.6861825 C238.838707,70.6697624 239.636454,71.4671116 240.620525,71.4671116 L247.747798,71.4671116 C248.731869,71.4671116 249.529616,70.6697624 249.529616,69.6861825 L249.529616,62.5624658 C249.529616,61.5788859 248.731869,60.7815367 247.747798,60.7815367 L240.620525,60.7815367 Z M254.162344,60.7815367 C253.178273,60.7815367 252.380525,61.5788859 252.380525,62.5624658 L252.380525,69.6861825 C252.380525,70.6697624 253.178273,71.4671116 254.162344,71.4671116 L261.289617,71.4671116 C262.273688,71.4671116 263.071435,70.6697624 263.071435,69.6861825 L263.071435,62.5624658 C263.071435,61.5788859 262.273688,60.7815367 261.289617,60.7815367 L254.162344,60.7815367 Z M267.525981,60.7815367 C266.54191,60.7815367 265.744162,61.5788859 265.744162,62.5624658 L265.744162,69.6861825 C265.744162,70.6697624 266.54191,71.4671116 267.525981,71.4671116 L274.653254,71.4671116 C275.637325,71.4671116 276.435072,70.6697624 276.435072,69.6861825 L276.435072,62.5624658 C276.435072,61.5788859 275.637325,60.7815367 274.653254,60.7815367 L267.525981,60.7815367 Z M281.0678,60.7815367 C280.083729,60.7815367 279.285981,61.5788859 279.285981,62.5624658 L279.285981,69.6861825 C279.285981,70.6697624 280.083729,71.4671116 281.0678,71.4671116 L288.195073,71.4671116 C289.179144,71.4671116 289.976891,70.6697624 289.976891,69.6861825 L289.976891,62.5624658 C289.976891,61.5788859 289.179144,60.7815367 288.195073,60.7815367 L281.0678,60.7815367 Z M294.609618,60.7815367 C293.625547,60.7815367 292.8278,61.5788859 292.8278,62.5624658 L292.8278,69.6861825 C292.8278,70.6697624 293.625547,71.4671116 294.609618,71.4671116 L301.736891,71.4671116 C302.720962,71.4671116 303.51871,70.6697624 303.51871,69.6861825 L303.51871,62.5624658 C303.51871,61.5788859 302.720962,60.7815367 301.736891,60.7815367 L294.609618,60.7815367 Z M308.151437,60.7815367 C307.167366,60.7815367 306.369619,61.5788859 306.369619,62.5624658 L306.369619,69.6861825 C306.369619,70.6697624 307.167366,71.4671116 308.151437,71.4671116 L315.27871,71.4671116 C316.262781,71.4671116 317.060528,70.6697624 317.060528,69.6861825 L317.060528,62.5624658 C317.060528,61.5788859 316.262781,60.7815367 315.27871,60.7815367 L308.151437,60.7815367 Z M321.693256,60.7815367 C320.709185,60.7815367 319.911438,61.5788859 319.911438,62.5624658 L319.911438,69.6861825 C319.911438,70.6697624 320.709185,71.4671116 321.693256,71.4671116 L328.820529,71.4671116 C329.8046,71.4671116 330.602347,70.6697624 330.602347,69.6861825 L330.602347,62.5624658 C330.602347,61.5788859 329.8046,60.7815367 328.820529,60.7815367 L321.693256,60.7815367 Z M335.235075,60.7815367 C334.251003,60.7815367 333.453256,61.5788859 333.453256,62.5624658 L333.453256,69.6861825 C333.453256,70.6697624 334.251003,71.4671116 335.235075,71.4671116 L342.362348,71.4671116 C343.346419,71.4671116 344.144166,70.6697624 344.144166,69.6861825 L344.144166,62.5624658 C344.144166,61.5788859 343.346419,60.7815367 342.362348,60.7815367 L335.235075,60.7815367 Z M348.776894,60.7815367 C347.792822,60.7815367 346.995075,61.5788859 346.995075,62.5624658 L346.995075,69.6861825 C346.995075,70.6697624 347.792822,71.4671116 348.776894,71.4671116 L355.904167,71.4671116 C356.888238,71.4671116 357.685985,70.6697624 357.685985,69.6861825 L357.685985,62.5624658 C357.685985,61.5788859 356.888238,60.7815367 355.904167,60.7815367 L348.776894,60.7815367 Z M164.00234,75.0289699 C163.018269,75.0289699 162.220521,75.8263192 162.220521,76.8098991 L162.220521,83.9336157 C162.220521,84.9171957 163.018269,85.7145449 164.00234,85.7145449 L187.344159,85.7145449 C188.32823,85.7145449 189.125977,84.9171957 189.125977,83.9336157 L189.125977,76.8098991 C189.125977,75.8263192 188.32823,75.0289699 187.344159,75.0289699 L164.00234,75.0289699 Z M194.115068,75.0289699 C193.130997,75.0289699 192.33325,75.8263192 192.33325,76.8098991 L192.33325,83.9336157 C192.33325,84.9171957 193.130997,85.7145449 194.115068,85.7145449 L201.242341,85.7145449 C202.226412,85.7145449 203.02416,84.9171957 203.02416,83.9336157 L203.02416,76.8098991 C203.02416,75.8263192 202.226412,75.0289699 201.242341,75.0289699 L194.115068,75.0289699 Z M207.835069,75.0289699 C206.850998,75.0289699 206.053251,75.8263192 206.053251,76.8098991 L206.053251,83.9336157 C206.053251,84.9171957 206.850998,85.7145449 207.835069,85.7145449 L214.962342,85.7145449 C215.946413,85.7145449 216.74416,84.9171957 216.74416,83.9336157 L216.74416,76.8098991 C216.74416,75.8263192 215.946413,75.0289699 214.962342,75.0289699 L207.835069,75.0289699 Z M221.733251,75.0289699 C220.74918,75.0289699 219.951433,75.8263192 219.951433,76.8098991 L219.951433,83.9336157 C219.951433,84.9171957 220.74918,85.7145449 221.733251,85.7145449 L228.860524,85.7145449 C229.844595,85.7145449 230.642343,84.9171957 230.642343,83.9336157 L230.642343,76.8098991 C230.642343,75.8263192 229.844595,75.0289699 228.860524,75.0289699 L221.733251,75.0289699 Z M235.631434,75.0289699 C234.647363,75.0289699 233.849616,75.8263192 233.849616,76.8098991 L233.849616,83.9336157 C233.849616,84.9171957 234.647363,85.7145449 235.631434,85.7145449 L242.758707,85.7145449 C243.742778,85.7145449 244.540525,84.9171957 244.540525,83.9336157 L244.540525,76.8098991 C244.540525,75.8263192 243.742778,75.0289699 242.758707,75.0289699 L235.631434,75.0289699 Z M249.529616,75.0289699 C248.545545,75.0289699 247.747798,75.8263192 247.747798,76.8098991 L247.747798,83.9336157 C247.747798,84.9171957 248.545545,85.7145449 249.529616,85.7145449 L256.656889,85.7145449 C257.64096,85.7145449 258.438708,84.9171957 258.438708,83.9336157 L258.438708,76.8098991 C258.438708,75.8263192 257.64096,75.0289699 256.656889,75.0289699 L249.529616,75.0289699 Z M263.249617,75.0289699 C262.265546,75.0289699 261.467799,75.8263192 261.467799,76.8098991 L261.467799,83.9336157 C261.467799,84.9171957 262.265546,85.7145449 263.249617,85.7145449 L270.37689,85.7145449 C271.360961,85.7145449 272.158708,84.9171957 272.158708,83.9336157 L272.158708,76.8098991 C272.158708,75.8263192 271.360961,75.0289699 270.37689,75.0289699 L263.249617,75.0289699 Z M277.147799,75.0289699 C276.163728,75.0289699 275.365981,75.8263192 275.365981,76.8098991 L275.365981,83.9336157 C275.365981,84.9171957 276.163728,85.7145449 277.147799,85.7145449 L284.275072,85.7145449 C285.259143,85.7145449 286.056891,84.9171957 286.056891,83.9336157 L286.056891,76.8098991 C286.056891,75.8263192 285.259143,75.0289699 284.275072,75.0289699 L277.147799,75.0289699 Z M291.045982,75.0289699 C290.061911,75.0289699 289.264164,75.8263192 289.264164,76.8098991 L289.264164,83.9336157 C289.264164,84.9171957 290.061911,85.7145449 291.045982,85.7145449 L298.173255,85.7145449 C299.157326,85.7145449 299.955073,84.9171957 299.955073,83.9336157 L299.955073,76.8098991 C299.955073,75.8263192 299.157326,75.0289699 298.173255,75.0289699 L291.045982,75.0289699 Z M304.944164,75.0289699 C303.960093,75.0289699 303.162346,75.8263192 303.162346,76.8098991 L303.162346,83.9336157 C303.162346,84.9171957 303.960093,85.7145449 304.944164,85.7145449 L312.071437,85.7145449 C313.055508,85.7145449 313.853256,84.9171957 313.853256,83.9336157 L313.853256,76.8098991 C313.853256,75.8263192 313.055508,75.0289699 312.071437,75.0289699 L304.944164,75.0289699 Z M318.664165,75.0289699 C317.680094,75.0289699 316.882347,75.8263192 316.882347,76.8098991 L316.882347,83.9336157 C316.882347,84.9171957 317.680094,85.7145449 318.664165,85.7145449 L325.791438,85.7145449 C326.775509,85.7145449 327.573256,84.9171957 327.573256,83.9336157 L327.573256,76.8098991 C327.573256,75.8263192 326.775509,75.0289699 325.791438,75.0289699 L318.664165,75.0289699 Z M332.562347,75.0289699 C331.578276,75.0289699 330.780529,75.8263192 330.780529,76.8098991 L330.780529,83.9336157 C330.780529,84.9171957 331.578276,85.7145449 332.562347,85.7145449 L355.904167,85.7145449 C356.888238,85.7145449 357.685985,84.9171957 357.685985,83.9336157 L357.685985,76.8098991 C357.685985,75.8263192 356.888238,75.0289699 355.904167,75.0289699 L332.562347,75.0289699 Z M164.00234,89.2764032 C163.018269,89.2764032 162.220521,90.0737525 162.220521,91.0573324 L162.220521,98.181049 C162.220521,99.164629 163.018269,99.9619782 164.00234,99.9619782 L194.471432,99.9619782 C195.455503,99.9619782 196.25325,99.164629 196.25325,98.181049 L196.25325,91.0573324 C196.25325,90.0737525 195.455503,89.2764032 194.471432,89.2764032 L164.00234,89.2764032 Z M217.991433,105.304766 C217.007362,105.304766 216.209615,106.102115 216.209615,107.085695 L216.209615,114.209411 C216.209615,115.192991 217.007362,115.990341 217.991433,115.990341 L288.195073,115.990341 C289.179144,115.990341 289.976891,115.192991 289.976891,114.209411 L289.976891,107.085695 C289.976891,106.102115 289.179144,105.304766 288.195073,105.304766 L217.991433,105.304766 Z M212.111433,105.304766 L200.885978,105.304766 C199.901907,105.304766 199.104159,106.102115 199.104159,107.085695 L199.104159,114.209411 C199.104159,115.192991 199.901907,115.990341 200.885978,115.990341 L212.111433,115.990341 C213.095504,115.990341 213.893251,115.192991 213.893251,114.209411 L213.893251,107.085695 C213.893251,106.102115 213.095504,105.304766 212.111433,105.304766 Z M305.122346,105.304766 L293.896891,105.304766 C292.91282,105.304766 292.115073,106.102115 292.115073,107.085695 L292.115073,114.209411 C292.115073,115.192991 292.91282,115.990341 293.896891,115.990341 L305.122346,115.990341 C306.106417,115.990341 306.904164,115.192991 306.904164,114.209411 L306.904164,107.085695 C306.904164,106.102115 306.106417,105.304766 305.122346,105.304766 Z M169.347794,105.304766 L164.00234,105.304766 C163.018269,105.304766 162.220521,106.102115 162.220521,107.085695 L162.220521,114.209411 C162.220521,115.192991 163.018269,115.990341 164.00234,115.990341 L169.347794,115.990341 C170.331865,115.990341 171.129613,115.192991 171.129613,114.209411 L171.129613,107.085695 C171.129613,106.102115 170.331865,105.304766 169.347794,105.304766 Z M182.176886,105.304766 L175.049613,105.304766 C174.065542,105.304766 173.267795,106.102115 173.267795,107.085695 L173.267795,114.209411 C173.267795,115.192991 174.065542,115.990341 175.049613,115.990341 L182.176886,115.990341 C183.160957,115.990341 183.958704,115.192991 183.958704,114.209411 L183.958704,107.085695 C183.958704,106.102115 183.160957,105.304766 182.176886,105.304766 Z M195.184159,105.304766 L188.056886,105.304766 C187.072815,105.304766 186.275068,106.102115 186.275068,107.085695 L186.275068,114.209411 C186.275068,115.192991 187.072815,115.990341 188.056886,115.990341 L195.184159,115.990341 C196.16823,115.990341 196.965977,115.192991 196.965977,114.209411 L196.965977,107.085695 C196.965977,106.102115 196.16823,105.304766 195.184159,105.304766 Z M318.129619,105.304766 L311.002346,105.304766 C310.018275,105.304766 309.220528,106.102115 309.220528,107.085695 L309.220528,114.209411 C309.220528,115.192991 310.018275,115.990341 311.002346,115.990341 L318.129619,115.990341 C319.11369,115.990341 319.911438,115.192991 319.911438,114.209411 L319.911438,107.085695 C319.911438,106.102115 319.11369,105.304766 318.129619,105.304766 Z M343.431439,111.716111 L336.304166,111.716111 C335.320094,111.716111 334.522347,112.51346 334.522347,113.49704 L334.522347,114.209411 C334.522347,115.192991 335.320094,115.990341 336.304166,115.990341 L343.431439,115.990341 C344.41551,115.990341 345.213257,115.192991 345.213257,114.209411 L345.213257,113.49704 C345.213257,112.51346 344.41551,111.716111 343.431439,111.716111 Z M343.431439,105.304766 L336.304166,105.304766 C335.320094,105.304766 334.522347,106.102115 334.522347,107.085695 L334.522347,107.798066 C334.522347,108.781646 335.320094,109.578996 336.304166,109.578996 L343.431439,109.578996 C344.41551,109.578996 345.213257,108.781646 345.213257,107.798066 L345.213257,107.085695 C345.213257,106.102115 344.41551,105.304766 343.431439,105.304766 Z M330.958711,111.716111 L323.831438,111.716111 C322.847367,111.716111 322.04962,112.51346 322.04962,113.49704 L322.04962,114.209411 C322.04962,115.192991 322.847367,115.990341 323.831438,115.990341 L330.958711,115.990341 C331.942782,115.990341 332.740529,115.192991 332.740529,114.209411 L332.740529,113.49704 C332.740529,112.51346 331.942782,111.716111 330.958711,111.716111 Z M355.904167,111.716111 L348.776894,111.716111 C347.792822,111.716111 346.995075,112.51346 346.995075,113.49704 L346.995075,114.209411 C346.995075,115.192991 347.792822,115.990341 348.776894,115.990341 L355.904167,115.990341 C356.888238,115.990341 357.685985,115.192991 357.685985,114.209411 L357.685985,113.49704 C357.685985,112.51346 356.888238,111.716111 355.904167,111.716111 Z M201.242341,89.2764032 C200.25827,89.2764032 199.460523,90.0737525 199.460523,91.0573324 L199.460523,98.181049 C199.460523,99.164629 200.25827,99.9619782 201.242341,99.9619782 L208.369614,99.9619782 C209.353685,99.9619782 210.151433,99.164629 210.151433,98.181049 L210.151433,91.0573324 C210.151433,90.0737525 209.353685,89.2764032 208.369614,89.2764032 L201.242341,89.2764032 Z M214.962342,89.2764032 C213.978271,89.2764032 213.180524,90.0737525 213.180524,91.0573324 L213.180524,98.181049 C213.180524,99.164629 213.978271,99.9619782 214.962342,99.9619782 L222.089615,99.9619782 C223.073686,99.9619782 223.871433,99.164629 223.871433,98.181049 L223.871433,91.0573324 C223.871433,90.0737525 223.073686,89.2764032 222.089615,89.2764032 L214.962342,89.2764032 Z M228.860524,89.2764032 C227.876453,89.2764032 227.078706,90.0737525 227.078706,91.0573324 L227.078706,98.181049 C227.078706,99.164629 227.876453,99.9619782 228.860524,99.9619782 L235.987797,99.9619782 C236.971868,99.9619782 237.769616,99.164629 237.769616,98.181049 L237.769616,91.0573324 C237.769616,90.0737525 236.971868,89.2764032 235.987797,89.2764032 L228.860524,89.2764032 Z M242.580525,89.2764032 C241.596454,89.2764032 240.798707,90.0737525 240.798707,91.0573324 L240.798707,98.181049 C240.798707,99.164629 241.596454,99.9619782 242.580525,99.9619782 L249.707798,99.9619782 C250.691869,99.9619782 251.489616,99.164629 251.489616,98.181049 L251.489616,91.0573324 C251.489616,90.0737525 250.691869,89.2764032 249.707798,89.2764032 L242.580525,89.2764032 Z M256.478707,89.2764032 C255.494637,89.2764032 254.696889,90.0737525 254.696889,91.0573324 L254.696889,98.181049 C254.696889,99.164629 255.494637,99.9619782 256.478707,99.9619782 L263.605981,99.9619782 C264.590052,99.9619782 265.387799,99.164629 265.387799,98.181049 L265.387799,91.0573324 C265.387799,90.0737525 264.590052,89.2764032 263.605981,89.2764032 L256.478707,89.2764032 Z M270.198708,89.2764032 C269.214637,89.2764032 268.41689,90.0737525 268.41689,91.0573324 L268.41689,98.181049 C268.41689,99.164629 269.214637,99.9619782 270.198708,99.9619782 L277.325981,99.9619782 C278.310052,99.9619782 279.107799,99.164629 279.107799,98.181049 L279.107799,91.0573324 C279.107799,90.0737525 278.310052,89.2764032 277.325981,89.2764032 L270.198708,89.2764032 Z M284.096891,89.2764032 C283.11282,89.2764032 282.315072,90.0737525 282.315072,91.0573324 L282.315072,98.181049 C282.315072,99.164629 283.11282,99.9619782 284.096891,99.9619782 L291.224164,99.9619782 C292.208235,99.9619782 293.005982,99.164629 293.005982,98.181049 L293.005982,91.0573324 C293.005982,90.0737525 292.208235,89.2764032 291.224164,89.2764032 L284.096891,89.2764032 Z M297.816891,89.2764032 C296.83282,89.2764032 296.035073,90.0737525 296.035073,91.0573324 L296.035073,98.181049 C296.035073,99.164629 296.83282,99.9619782 297.816891,99.9619782 L304.944164,99.9619782 C305.928235,99.9619782 306.725983,99.164629 306.725983,98.181049 L306.725983,91.0573324 C306.725983,90.0737525 305.928235,89.2764032 304.944164,89.2764032 L297.816891,89.2764032 Z M311.715074,89.2764032 C310.731003,89.2764032 309.933255,90.0737525 309.933255,91.0573324 L309.933255,98.181049 C309.933255,99.164629 310.731003,99.9619782 311.715074,99.9619782 L318.842347,99.9619782 C319.826418,99.9619782 320.624165,99.164629 320.624165,98.181049 L320.624165,91.0573324 C320.624165,90.0737525 319.826418,89.2764032 318.842347,89.2764032 L311.715074,89.2764032 Z M325.435074,89.2764032 C324.451003,89.2764032 323.653256,90.0737525 323.653256,91.0573324 L323.653256,98.181049 C323.653256,99.164629 324.451003,99.9619782 325.435074,99.9619782 L355.904167,99.9619782 C356.888238,99.9619782 357.685985,99.164629 357.685985,98.181049 L357.685985,91.0573324 C357.685985,90.0737525 356.888238,89.2764032 355.904167,89.2764032 L325.435074,89.2764032 Z M336.125984,46.5341034 C335.141912,46.5341034 334.344166,47.3314526 334.344166,48.3150325 L334.344166,55.4387492 C334.344166,56.4223291 335.141912,57.2196783 336.125984,57.2196783 L355.904167,57.2196783 C356.888238,57.2196783 357.685985,56.4223291 357.685985,55.4387492 L357.685985,48.3150325 C357.685985,47.3314526 356.888238,46.5341034 355.904167,46.5341034 L336.125984,46.5341034 Z" id="Combined-Shape" fill="#EE164E" fill-rule="nonzero" transform="translate(259.953253, 75.919435) rotate(-31.000000) translate(-259.953253, -75.919435) "></path>
        </g>
    </g>
</svg>