<svg width="31px" height="32px" viewBox="0 0 31 32" version="1.1" xmlns="http://www.w3.org/2000/svg" xmlns:xlink="http://www.w3.org/1999/xlink">
    <title>Twitch icon</title>
    <g fill-rule="evenodd">
        <path d="M2.1796875,0 L0,5.49253731 L0,27.9402985 L7.75,27.9402985 L7.75,32 L12.109375,32 L16.2265625,27.9402985 L22.5234375,27.9402985 L31,19.5820896 L31,0 L2.1796875,0 Z M28.09375,18.1492537 L23.25,22.9253731 L15.5,22.9253731 L11.3828125,26.9850746 L11.3828125,22.9253731 L4.84375,22.9253731 L4.84375,2.86567164 L28.09375,2.86567164 L28.09375,18.1492537 Z M23.25,8.35820896 L23.25,16.7164179 L20.34375,16.7164179 L20.34375,8.35820896 L23.25,8.35820896 Z M15.5,8.35820896 L15.5,16.7164179 L12.59375,16.7164179 L12.59375,8.35820896 L15.5,8.35820896 Z" fill="white"></path>
    </g>
</svg>